0
SECTION
2
HEADER
9
$INSUNITS
70
1
9
$ACADVER
1
AC1014
9
$HANDSEED
5
FFFF
0
ENDSEC
0
SECTION
2
TABLES
0
TABLE
2
VPORT
5
8
100
AcDbSymbolTable
0
ENDTAB
0
TABLE
2
LTYPE
5
5
100
AcDbSymbolTable
0
LTYPE
5
14
100
AcDbSymbolTableRecord
100
AcDbLinetypeTableRecord
2
BYBLOCK
70
0
0
LTYPE
5
15
100
AcDbSymbolTableRecord
100
AcDbLinetypeTableRecord
2
BYLAYER
70
0
0
ENDTAB
0
TABLE
2
LAYER
5
2
100
AcDbSymbolTable
70
2
0
LAYER
5
50
100
AcDbSymbolTableRecord
100
AcDbLayerTableRecord
2
0
70
0
6
CONTINUOUS
0
ENDTAB
0
TABLE
2
STYLE
5
3
100
AcDbSymbolTable
70
1
0
STYLE
5
11
100
AcDbSymbolTableRecord
100
AcDbTextStyleTableRecord
2
STANDARD
70
0
0
ENDTAB
0
TABLE
2
VIEW
5
6
100
AcDbSymbolTable
70
0
0
ENDTAB
0
TABLE
2
UCS
5
7
100
AcDbSymbolTable
70
0
0
ENDTAB
0
TABLE
2
APPID
5
9
100
AcDbSymbolTable
70
2
0
APPID
5
12
100
AcDbSymbolTableRecord
100
AcDbRegAppTableRecord
2
ACAD
70
0
0
ENDTAB
0
TABLE
2
DIMSTYLE
5
A
100
AcDbSymbolTable
70
1
0
ENDTAB
0
TABLE
2
BLOCK_RECORD
5
1
100
AcDbSymbolTable
70
1
0
BLOCK_RECORD
5
1F
100
AcDbSymbolTableRecord
100
AcDbBlockTableRecord
2
*MODEL_SPACE
0
BLOCK_RECORD
5
1B
100
AcDbSymbolTableRecord
100
AcDbBlockTableRecord
2
*PAPER_SPACE
0
ENDTAB
0
ENDSEC
0
SECTION
2
BLOCKS
0
BLOCK
5
20
100
AcDbEntity
100
AcDbBlockBegin
2
*MODEL_SPACE
0
ENDBLK
5
21
100
AcDbEntity
100
AcDbBlockEnd
0
BLOCK
5
1C
100
AcDbEntity
100
AcDbBlockBegin
2
*PAPER_SPACE
0
ENDBLK
5
1D
100
AcDbEntity
100
AcDbBlockEnd
0
ENDSEC
0
SECTION
2
ENTITIES
0
CIRCLE
5
100
100
AcDbEntity
8
0
100
AcDbCircle
10
0.077480314960887489
20
0.43699903566900161
30
0
40
0.12795275590551175
210
-9.8940015273529761e-32
220
-7.8886090522101181e-31
230
1
0
CIRCLE
5
101
100
AcDbEntity
8
0
100
AcDbCircle
10
3.4436220472440788
20
0.82570118110236745
30
0
40
0.098425196850393581
210
-1.0356224714005913e-31
220
-7.8886090522101181e-31
230
1
0
CIRCLE
5
102
100
AcDbEntity
8
0
100
AcDbCircle
10
3.4436220472440775
20
2.203653937007878
30
0
40
0.49212598425196796
210
-9.2777039451490595e-32
220
-7.8886090522101181e-31
230
1
0
CIRCLE
5
103
100
AcDbEntity
8
0
100
AcDbCircle
10
1.2782677165354264
20
2.2036539370078785
30
0
40
0.098425196850393581
210
-1.0356224714005913e-31
220
-7.8886090522101181e-31
230
1
0
CIRCLE
5
104
100
AcDbEntity
8
0
100
AcDbCircle
10
-0.099685039370078596
20
2.2036539370078785
30
0
40
0.49212598425196796
210
-9.2777039451490595e-32
220
-7.8886090522101181e-31
230
1
0
CIRCLE
5
105
100
AcDbEntity
8
0
100
AcDbCircle
10
-1.4776377952755846
20
2.2036539370078794
30
0
40
0.098425196850393581
210
-1.0356224714005913e-31
220
-7.8886090522101181e-31
230
1
0
CIRCLE
5
106
100
AcDbEntity
8
0
100
AcDbCircle
10
2.0656692913385717
20
2.2036539370078798
30
0
40
0.098425196850393581
210
-1.0356224714005913e-31
220
-7.8886090522101181e-31
230
1
0
CIRCLE
5
107
100
AcDbEntity
8
0
100
AcDbCircle
10
-0.099685039370078249
20
3.5816066929133892
30
0
40
0.098425196850393581
210
-1.0356224714005913e-31
220
-7.8886090522101181e-31
230
1
0
CIRCLE
5
108
100
AcDbEntity
8
0
100
AcDbCircle
10
4.8215748031495833
20
2.2036539370079531
30
3.4967654318902565e-16
40
0.098425196850393581
210
-1.0356224714005913e-31
220
-7.8886090522101181e-31
230
1
0
CIRCLE
5
109
100
AcDbEntity
8
0
100
AcDbCircle
10
3.2664566929133523
20
0.43699903566900145
30
0
40
0.12795275590551164
210
-1.0510299109556894e-31
220
-1.1832913578315179e-30
230
1
0
CIRCLE
5
110
100
AcDbEntity
8
0
100
AcDbCircle
10
-0.0996850393700765
20
0.82570118110236845
30
0
40
0.098425196850393581
210
-1.0356224714005913e-31
220
-7.8886090522101181e-31
230
1
0
CIRCLE
5
111
100
AcDbEntity
8
0
100
AcDbCircle
10
3.4436220472440371
20
3.5816066929133878
30
3.4967654318902565e-16
40
0.098425196850393581
210
-1.0356224714005913e-31
220
-7.8886090522101181e-31
230
1
0
LWPOLYLINE
5
112
100
AcDbEntity
8
0
100
AcDbPolyline
90
12
70
1
43
0.0
10
1.8688188976377873
20
0.23515000000000616
10
1.4751181102362128
20
0.23515000000000674
10
1.4751181102362128
20
2.2036539370078785
42
2.3113251177678698
10
-0.19811023622039781
20
0.63192958438274671
10
-0.19811023622046189
20
0.23515000000000924
10
-1.37921259842518
20
0.23515000000000738
10
-1.3792125984251804
20
-0.014849999999992416
10
4.7231496062991996
20
-0.014849999999992911
10
4.7231496062991818
20
0.23515000000000644
10
3.542047244094463
20
0.23515000000000721
10
3.5420472440944586
20
0.63192958438275015
42
2.3113251177678049
10
1.8688188976377857
20
2.2036539370078798
0
CIRCLE
5
113
100
AcDbEntity
8
0
100
AcDbCircle
10
3.443622047244062
20
3.5816066929133901
30
0
40
0.098425196850393692
210
-1.0322984501915584e-31
220
-7.8886090522101181e-31
230
1
0
CIRCLE
5
114
100
AcDbEntity
8
0
100
AcDbCircle
10
-0.099685039370068104
20
0.82570118110236745
30
0
40
0.098425196850393692
210
-1.0322984501915584e-31
220
-7.8886090522101181e-31
230
1
0
CIRCLE
5
115
100
AcDbEntity
8
0
100
AcDbCircle
10
3.2664566929133776
20
0.43699903566899995
30
0
40
0.12795275590551181
210
-1.0322984501915584e-31
220
-7.8886090522101181e-31
230
1
0
CIRCLE
5
116
100
AcDbEntity
8
0
100
AcDbCircle
10
4.8215748031496144
20
2.2036539370079535
30
3.4967654318902565e-16
40
0.098425196850393692
210
-1.0322984501915584e-31
220
-7.8886090522101181e-31
230
1
0
CIRCLE
5
117
100
AcDbEntity
8
0
100
AcDbCircle
10
-0.099685039370069853
20
3.5816066929133914
30
0
40
0.098425196850393692
210
-1.0322984501915584e-31
220
-7.8886090522101181e-31
230
1
0
CIRCLE
5
118
100
AcDbEntity
8
0
100
AcDbCircle
10
2.0656692913385908
20
2.2036539370078803
30
3.4967654318902565e-16
40
0.098425196850393692
210
-1.0322984501915584e-31
220
-7.8886090522101181e-31
230
1
0
CIRCLE
5
119
100
AcDbEntity
8
0
100
AcDbCircle
10
-1.4776377952755826
20
2.2036539370078798
30
0
40
0.098425196850393692
210
-1.0322984501915584e-31
220
-7.8886090522101181e-31
230
1
0
CIRCLE
5
120
100
AcDbEntity
8
0
100
AcDbCircle
10
-0.0996850393700702
20
2.2036539370078794
30
0
40
0.49212598425196846
210
-1.0322984501915584e-31
220
-7.8886090522101181e-31
230
1
0
CIRCLE
5
121
100
AcDbEntity
8
0
100
AcDbCircle
10
1.2782677165354412
20
2.2036539370078794
30
0
40
0.098425196850393692
210
-1.0322984501915584e-31
220
-7.8886090522101181e-31
230
1
0
CIRCLE
5
122
100
AcDbEntity
8
0
100
AcDbCircle
10
3.4436220472441028
20
2.2036539370078785
30
3.4967654318902565e-16
40
0.49212598425196846
210
-1.0322984501915584e-31
220
-7.8886090522101181e-31
230
1
0
CIRCLE
5
123
100
AcDbEntity
8
0
100
AcDbCircle
10
3.4436220472441041
20
0.82570118110236634
30
0
40
0.098425196850393692
210
-1.0322984501915584e-31
220
-7.8886090522101181e-31
230
1
0
CIRCLE
5
124
100
AcDbEntity
8
0
100
AcDbCircle
10
0.077480314960896926
20
0.43699903566900011
30
0
40
0.12795275590551186
210
-1.0322984501915584e-31
220
-7.8886090522101181e-31
230
1
0
LWPOLYLINE
5
125
100
AcDbEntity
8
0
100
AcDbPolyline
90
12
70
1
43
0.0
10
1.8688188976378062
20
0.23515000000000469
10
1.8688188976378037
20
2.2036539370078785
42
-2.3113251177678067
10
3.5420472440944843
20
0.63192958438274893
10
3.5420472440944888
20
0.2351500000000073
10
4.723149606299212
20
0.23515000000000499
10
4.7231496062992315
20
-0.014849999999994526
10
-1.379212598425178
20
-0.014849999999994165
10
-1.3792125984251773
20
0.23515000000000591
10
-0.19811023622045376
20
0.23515000000000749
10
-0.19811023622038942
20
0.6319295843827456
42
-2.3113251177678698
10
1.475118110236229
20
2.2036539370078789
10
1.4751181102362285
20
0.23515000000000522
0
ENDSEC
0
SECTION
2
OBJECTS
0
DICTIONARY
5
C
100
AcDbDictionary
3
ACAD_GROUP
350
D
3
ACAD_MLINESTYLE
350
17
0
DICTIONARY
5
D
100
AcDbDictionary
0
DICTIONARY
5
1A
330
C
100
AcDbDictionary
0
DICTIONARY
5
17
100
AcDbDictionary
0
ENDSEC
0
EOF
