0
SECTION
2
HEADER
9
$INSUNITS
70
4
9
$ACADVER
1
AC1014
9
$HANDSEED
5
FFFF
0
ENDSEC
0
SECTION
2
TABLES
0
TABLE
2
VPORT
5
8
100
AcDbSymbolTable
0
ENDTAB
0
TABLE
2
LTYPE
5
5
100
AcDbSymbolTable
0
LTYPE
5
14
100
AcDbSymbolTableRecord
100
AcDbLinetypeTableRecord
2
BYBLOCK
70
0
0
LTYPE
5
15
100
AcDbSymbolTableRecord
100
AcDbLinetypeTableRecord
2
BYLAYER
70
0
0
ENDTAB
0
TABLE
2
LAYER
5
2
100
AcDbSymbolTable
70
2
0
LAYER
5
50
100
AcDbSymbolTableRecord
100
AcDbLayerTableRecord
2
0
70
0
6
CONTINUOUS
0
ENDTAB
0
TABLE
2
STYLE
5
3
100
AcDbSymbolTable
70
1
0
STYLE
5
11
100
AcDbSymbolTableRecord
100
AcDbTextStyleTableRecord
2
STANDARD
70
0
0
ENDTAB
0
TABLE
2
VIEW
5
6
100
AcDbSymbolTable
70
0
0
ENDTAB
0
TABLE
2
UCS
5
7
100
AcDbSymbolTable
70
0
0
ENDTAB
0
TABLE
2
APPID
5
9
100
AcDbSymbolTable
70
2
0
APPID
5
12
100
AcDbSymbolTableRecord
100
AcDbRegAppTableRecord
2
ACAD
70
0
0
ENDTAB
0
TABLE
2
DIMSTYLE
5
A
100
AcDbSymbolTable
70
1
0
ENDTAB
0
TABLE
2
BLOCK_RECORD
5
1
100
AcDbSymbolTable
70
1
0
BLOCK_RECORD
5
1F
100
AcDbSymbolTableRecord
100
AcDbBlockTableRecord
2
*MODEL_SPACE
0
BLOCK_RECORD
5
1B
100
AcDbSymbolTableRecord
100
AcDbBlockTableRecord
2
*PAPER_SPACE
0
ENDTAB
0
ENDSEC
0
SECTION
2
BLOCKS
0
BLOCK
5
20
100
AcDbEntity
100
AcDbBlockBegin
2
*MODEL_SPACE
0
ENDBLK
5
21
100
AcDbEntity
100
AcDbBlockEnd
0
BLOCK
5
1C
100
AcDbEntity
100
AcDbBlockBegin
2
*PAPER_SPACE
0
ENDBLK
5
1D
100
AcDbEntity
100
AcDbBlockEnd
0
ENDSEC
0
SECTION
2
ENTITIES
0
LWPOLYLINE
5
100
100
AcDbEntity
8
0
100
AcDbPolyline
90
19
70
1
43
0.0
10
-38.675168628102298
20
-117.13366220935966
42
0.39063432313264695
10
-35.275168628198735
20
-113.44584442645038
10
-35.275168628198699
20
-90.145844426450452
10
-13.675168628198351
20
-90.145844426450452
42
0.41421356237309592
10
-10.675168628198364
20
-87.145844426450466
10
-10.675168628198371
20
-69.145844426450495
42
0.41421356237309592
10
-13.675168628198371
20
-66.145844426450509
10
-35.341988203281723
20
-66.145844426450523
42
0.33675005560696858
10
-38.675168627953042
20
-63.158026643553299
10
-38.675168628198335
20
-43.245844426450539
10
-13.67516862819852
20
-43.245844426450539
42
0.4142135623730942
10
-10.675168628198531
20
-40.245844426450539
10
-10.675168628198431
20
-5.2458444264506001
10
12.124831371801562
20
-5.2458444264505921
10
12.124831371801626
20
-157.64584442645025
10
-10.675168628198319
20
-157.64584442645025
10
-10.675168628198291
20
-140.64584442645025
42
0.41421356237309354
10
-13.675168628198318
20
-137.64584442645025
10
-38.675168628198278
20
-137.64584442645031
0
CIRCLE
5
101
100
AcDbEntity
8
0
100
AcDbCircle
10
0.724831371801411
20
-150.14584442645025
30
0
40
3.3500000000000001
210
1.2325951644078309e-32
220
6.8422776578360123e-48
230
1
0
CIRCLE
5
102
100
AcDbEntity
8
0
100
AcDbCircle
10
0.7248313718015531
20
-16.245844426450581
30
0
40
3.3500000000000001
210
1.2325951644078309e-32
220
6.8422776578360123e-48
230
1
0
CIRCLE
5
103
100
AcDbEntity
8
0
100
AcDbCircle
10
0.72483137180149981
20
-78.145844426450452
30
0
40
3.3500000000000001
210
1.2325951644078309e-32
220
6.8422776578360123e-48
230
1
0
LWPOLYLINE
5
104
100
AcDbEntity
8
0
100
AcDbPolyline
90
19
70
1
43
0.0
10
-35.341988203281588
20
-66.145844426450509
42
0.33675005560697047
10
-38.675168627952928
20
-63.158026643553249
10
-38.675168628198207
20
-43.245844426450461
10
-13.675168628198353
20
-43.245844426450446
42
0.4142135623730942
10
-10.67516862819835
20
-40.245844426450461
10
-10.675168628198275
20
-5.2458444264504447
10
12.124831371801772
20
-5.2458444264504163
10
12.124831371801882
20
-157.64584442645042
10
-10.675168628198124
20
-157.64584442645045
10
-10.675168628198096
20
-140.64584442645045
42
0.41421356237309531
10
-13.675168628198133
20
-137.64584442645042
10
-38.675168628198136
20
-137.64584442645048
10
-38.675168628102185
20
-117.13366220935974
42
0.39063432313264673
10
-35.2751686281986
20
-113.44584442645045
10
-35.275168628198585
20
-90.145844426450481
10
-13.675168628198175
20
-90.145844426450509
42
0.41421356237309503
10
-10.675168628198175
20
-87.145844426450495
10
-10.675168628198193
20
-69.145844426450481
42
0.41421356237309437
10
-13.675168628198186
20
-66.145844426450495
0
CIRCLE
5
105
100
AcDbEntity
8
0
100
AcDbCircle
10
0.72483137180171342
20
-78.145844426450452
30
0
40
3.3500000000000085
210
1.2325951644078309e-32
220
2.5112856456035442e-62
230
1
0
CIRCLE
5
106
100
AcDbEntity
8
0
100
AcDbCircle
10
0.72483137180176671
20
-16.245844426450443
30
0
40
3.3500000000000085
210
1.2325951644078309e-32
220
2.5112856456035442e-62
230
1
0
CIRCLE
5
107
100
AcDbEntity
8
0
100
AcDbCircle
10
0.72483137180164237
20
-150.14584442645045
30
0
40
3.3500000000000085
210
1.2325951644078309e-32
220
2.5112856456035442e-62
230
1
0
ENDSEC
0
SECTION
2
OBJECTS
0
DICTIONARY
5
C
100
AcDbDictionary
3
ACAD_GROUP
350
D
3
ACAD_MLINESTYLE
350
17
0
DICTIONARY
5
D
100
AcDbDictionary
0
DICTIONARY
5
1A
330
C
100
AcDbDictionary
0
DICTIONARY
5
17
100
AcDbDictionary
0
ENDSEC
0
EOF
