0
SECTION
2
HEADER
9
$INSUNITS
70
4
9
$ACADVER
1
AC1014
9
$HANDSEED
5
FFFF
0
ENDSEC
0
SECTION
2
TABLES
0
TABLE
2
VPORT
5
8
100
AcDbSymbolTable
0
ENDTAB
0
TABLE
2
LTYPE
5
5
100
AcDbSymbolTable
0
LTYPE
5
14
100
AcDbSymbolTableRecord
100
AcDbLinetypeTableRecord
2
BYBLOCK
70
0
0
LTYPE
5
15
100
AcDbSymbolTableRecord
100
AcDbLinetypeTableRecord
2
BYLAYER
70
0
0
ENDTAB
0
TABLE
2
LAYER
5
2
100
AcDbSymbolTable
70
2
0
LAYER
5
50
100
AcDbSymbolTableRecord
100
AcDbLayerTableRecord
2
0
70
0
6
CONTINUOUS
0
ENDTAB
0
TABLE
2
STYLE
5
3
100
AcDbSymbolTable
70
1
0
STYLE
5
11
100
AcDbSymbolTableRecord
100
AcDbTextStyleTableRecord
2
STANDARD
70
0
0
ENDTAB
0
TABLE
2
VIEW
5
6
100
AcDbSymbolTable
70
0
0
ENDTAB
0
TABLE
2
UCS
5
7
100
AcDbSymbolTable
70
0
0
ENDTAB
0
TABLE
2
APPID
5
9
100
AcDbSymbolTable
70
2
0
APPID
5
12
100
AcDbSymbolTableRecord
100
AcDbRegAppTableRecord
2
ACAD
70
0
0
ENDTAB
0
TABLE
2
DIMSTYLE
5
A
100
AcDbSymbolTable
70
1
0
ENDTAB
0
TABLE
2
BLOCK_RECORD
5
1
100
AcDbSymbolTable
70
1
0
BLOCK_RECORD
5
1F
100
AcDbSymbolTableRecord
100
AcDbBlockTableRecord
2
*MODEL_SPACE
0
BLOCK_RECORD
5
1B
100
AcDbSymbolTableRecord
100
AcDbBlockTableRecord
2
*PAPER_SPACE
0
ENDTAB
0
ENDSEC
0
SECTION
2
BLOCKS
0
BLOCK
5
20
100
AcDbEntity
100
AcDbBlockBegin
2
*MODEL_SPACE
0
ENDBLK
5
21
100
AcDbEntity
100
AcDbBlockEnd
0
BLOCK
5
1C
100
AcDbEntity
100
AcDbBlockBegin
2
*PAPER_SPACE
0
ENDBLK
5
1D
100
AcDbEntity
100
AcDbBlockEnd
0
ENDSEC
0
SECTION
2
ENTITIES
0
LWPOLYLINE
5
100
100
AcDbEntity
8
0
100
AcDbPolyline
90
14
70
1
43
0.0
10
-38.675168628102327
20
-117.13366220935951
42
0.39063432313264695
10
-35.275168628198756
20
-113.44584442645024
10
-35.275168628198749
20
-66.845844426450341
42
0.39063432312098911
10
-38.675168627953063
20
-63.158026643553157
10
-38.675168627792885
20
-5.2458444264170589
10
-8.2751686280986103
20
-5.2458444265043198
10
-8.2751686281525103
20
-21.120844426466014
42
0.41421356237373885
10
0.72483137186338142
20
-30.120844426469873
10
12.12483137234158
20
-30.120844426449676
10
12.124831371848764
20
-143.14584442652273
10
0.72483137196708869
20
-143.14584442648101
42
0.41421356237309098
10
-6.2751686280070063
20
-150.1458444265067
10
-6.2751686280290642
20
-157.64584442650931
10
-38.67516862821433
20
-157.6458444264166
0
CIRCLE
5
101
100
AcDbEntity
8
0
100
AcDbCircle
10
-27.275168628162412
20
-32.579177759783775
30
0
40
3.3499999999999912
210
-0
220
0
230
1
0
CIRCLE
5
102
100
AcDbEntity
8
0
100
AcDbCircle
10
-27.275168628198614
20
-150.14584442645022
30
0
40
3.3499999999999912
210
-0
220
0
230
1
0
CIRCLE
5
103
100
AcDbEntity
8
0
100
AcDbCircle
10
-27.275168628167528
20
-78.145844426450338
30
0
40
3.3499999999999912
210
0
220
-0
230
1
0
CIRCLE
5
104
100
AcDbEntity
8
0
100
AcDbCircle
10
0.724831371832515
20
-78.145844426459803
30
0
40
6.999999999999976
210
-0
220
0
230
1
0
CIRCLE
5
105
100
AcDbEntity
8
0
100
AcDbCircle
10
-27.2751686281375
20
-15.912511093116306
30
0
40
3.3499999999999912
210
-0
220
0
230
1
0
LWPOLYLINE
5
106
100
AcDbEntity
8
0
100
AcDbPolyline
90
14
70
1
43
0.0
10
-35.275168628198621
20
-66.845844426450313
42
0.39063432312098978
10
-38.675168627952957
20
-63.158026643553143
10
-38.675168627792793
20
-5.2458444264168822
10
-8.2751686280984398
20
-5.2458444265041448
10
-8.27516862815229
20
-21.120844426465876
42
0.41421356237373819
10
0.72483137186356794
20
-30.120844426469763
10
12.124831372341786
20
-30.120844426449569
10
12.124831371849005
20
-143.14584442652287
10
0.72483137196732539
20
-143.14584442648115
42
0.41421356237201284
10
-6.2751686280068046
20
-150.14584442648115
10
-6.275168628028851
20
-157.64584442650948
10
-38.675168628214195
20
-157.6458444264168
10
-38.675168628102206
20
-117.13366220935961
42
0.39063432313264707
10
-35.275168628198628
20
-113.44584442645032
0
CIRCLE
5
107
100
AcDbEntity
8
0
100
AcDbCircle
10
-27.275168628137362
20
-15.912511093116162
30
0
40
3.3499999999999996
210
0
220
-0
230
1
0
CIRCLE
5
108
100
AcDbEntity
8
0
100
AcDbCircle
10
0.72483137183273083
20
-78.145844426459817
30
0
40
6.9999999999999929
210
0
220
-0
230
1
0
CIRCLE
5
109
100
AcDbEntity
8
0
100
AcDbCircle
10
-27.275168628167382
20
-78.145844426450353
30
0
40
3.3499999999999996
210
0
220
-0
230
1
0
CIRCLE
5
110
100
AcDbEntity
8
0
100
AcDbCircle
10
-27.275168628198458
20
-150.1458444264504
30
0
40
3.3499999999999996
210
0
220
-0
230
1
0
CIRCLE
5
111
100
AcDbEntity
8
0
100
AcDbCircle
10
-27.275168628162266
20
-32.579177759783661
30
0
40
3.3499999999999996
210
0
220
-0
230
1
0
ENDSEC
0
SECTION
2
OBJECTS
0
DICTIONARY
5
C
100
AcDbDictionary
3
ACAD_GROUP
350
D
3
ACAD_MLINESTYLE
350
17
0
DICTIONARY
5
D
100
AcDbDictionary
0
DICTIONARY
5
1A
330
C
100
AcDbDictionary
0
DICTIONARY
5
17
100
AcDbDictionary
0
ENDSEC
0
EOF
