0
SECTION
2
HEADER
9
$INSUNITS
70
1
9
$ACADVER
1
AC1014
9
$HANDSEED
5
FFFF
0
ENDSEC
0
SECTION
2
TABLES
0
TABLE
2
VPORT
5
8
100
AcDbSymbolTable
0
ENDTAB
0
TABLE
2
LTYPE
5
5
100
AcDbSymbolTable
0
LTYPE
5
14
100
AcDbSymbolTableRecord
100
AcDbLinetypeTableRecord
2
BYBLOCK
70
0
0
LTYPE
5
15
100
AcDbSymbolTableRecord
100
AcDbLinetypeTableRecord
2
BYLAYER
70
0
0
ENDTAB
0
TABLE
2
LAYER
5
2
100
AcDbSymbolTable
70
2
0
LAYER
5
50
100
AcDbSymbolTableRecord
100
AcDbLayerTableRecord
2
0
70
0
6
CONTINUOUS
0
ENDTAB
0
TABLE
2
STYLE
5
3
100
AcDbSymbolTable
70
1
0
STYLE
5
11
100
AcDbSymbolTableRecord
100
AcDbTextStyleTableRecord
2
STANDARD
70
0
0
ENDTAB
0
TABLE
2
VIEW
5
6
100
AcDbSymbolTable
70
0
0
ENDTAB
0
TABLE
2
UCS
5
7
100
AcDbSymbolTable
70
0
0
ENDTAB
0
TABLE
2
APPID
5
9
100
AcDbSymbolTable
70
2
0
APPID
5
12
100
AcDbSymbolTableRecord
100
AcDbRegAppTableRecord
2
ACAD
70
0
0
ENDTAB
0
TABLE
2
DIMSTYLE
5
A
100
AcDbSymbolTable
70
1
0
ENDTAB
0
TABLE
2
BLOCK_RECORD
5
1
100
AcDbSymbolTable
70
1
0
BLOCK_RECORD
5
1F
100
AcDbSymbolTableRecord
100
AcDbBlockTableRecord
2
*MODEL_SPACE
0
BLOCK_RECORD
5
1B
100
AcDbSymbolTableRecord
100
AcDbBlockTableRecord
2
*PAPER_SPACE
0
ENDTAB
0
ENDSEC
0
SECTION
2
BLOCKS
0
BLOCK
5
20
100
AcDbEntity
100
AcDbBlockBegin
2
*MODEL_SPACE
0
ENDBLK
5
21
100
AcDbEntity
100
AcDbBlockEnd
0
BLOCK
5
1C
100
AcDbEntity
100
AcDbBlockBegin
2
*PAPER_SPACE
0
ENDBLK
5
1D
100
AcDbEntity
100
AcDbBlockEnd
0
ENDSEC
0
SECTION
2
ENTITIES
0
LINE
5
100
100
AcDbEntity
8
0
100
AcDbLine
10
-8.7294330875595243
20
5.8000000000000016
30
0
11
-8.7294330875595243
21
6.0330000000000004
31
3.7153132713833967e-16
0
ARC
5
101
100
AcDbEntity
8
0
100
AcDbCircle
10
-8.7004330875595226
20
6.1329999999999982
30
3.7153132713833977e-16
40
0.099999999999999117
210
-5.5511151231257827e-17
220
5.6001327934518438e-23
230
1
100
AcDbArc
50
180
51
270
0
LINE
5
102
100
AcDbEntity
8
0
100
AcDbLine
10
-8.8004330875595222
20
6.1329999999999982
30
3.6598021201521401e-16
11
-8.8004330875595205
21
6.5000001755286378
31
3.7153132713833977e-16
0
LINE
5
103
100
AcDbEntity
8
0
100
AcDbLine
10
-8.8004330875595205
20
6.5000001755286378
30
3.7153132713833977e-16
11
-8.9941830875595201
21
6.5000001755286396
31
3.9338611108765388e-16
0
LINE
5
104
100
AcDbEntity
8
0
100
AcDbLine
10
-8.9941830875595201
20
6.5000001755286396
30
3.9338611108765388e-16
11
-8.9941830875595201
21
6.3000002872287064
31
1.0818118054910482e-15
0
ARC
5
105
100
AcDbEntity
8
0
100
AcDbCircle
10
-9.1504330875595201
20
6.3000002872287064
30
-1.0162474536431058e-15
40
0.15625000000000056
210
1.6653345369377348e-16
220
0
230
1
100
AcDbArc
50
-180
51
0
0
LINE
5
106
100
AcDbEntity
8
0
100
AcDbLine
10
-9.3066830875595201
20
6.3000002872287064
30
-9.9022660150345365e-16
11
-9.3066830875595201
21
6.5000001755286396
31
3.824587191129968e-16
0
LINE
5
107
100
AcDbEntity
8
0
100
AcDbLine
10
-9.3066830875595201
20
6.5000001755286396
30
3.824587191129968e-16
11
-9.5004330875595198
21
6.5000001755286396
31
6.9935308637805131e-16
0
LINE
5
108
100
AcDbEntity
8
0
100
AcDbLine
10
-9.5004330875595198
20
6.5000001755286396
30
6.9935308637805131e-16
11
-9.5004330875595198
21
5.6000001579757779
31
-2.4263684338736828e-33
0
ARC
5
109
100
AcDbEntity
8
0
100
AcDbCircle
10
-9.4004330875595201
20
5.6000001579757779
30
-6.9935308637805131e-16
40
0.10000000000000052
210
6.9935308637804768e-15
220
-2.8657837572482144e-31
230
1
100
AcDbArc
50
180
51
269.9999899429497
0
LINE
5
110
100
AcDbEntity
8
0
100
AcDbLine
10
-9.4004331051123842
20
5.5000001579757791
30
-6.9935308637805131e-16
11
-9.2834330875595228
21
5.5000001579757773
31
3.6060393516368269e-16
0
LINE
5
111
100
AcDbEntity
8
0
100
AcDbLine
10
-8.5004330877595251
20
5.5
30
-2.0210061074550295e-32
11
-8.5004330877595251
21
5.2829999999999995
31
3.6060393516368269e-16
0
LINE
5
112
100
AcDbEntity
8
0
100
AcDbLine
10
-8.5004330877595251
20
5.2829999999999995
30
3.6060393516368269e-16
11
-7.500433087759526
21
5.2829999999999986
31
3.6060393516368269e-16
0
LINE
5
113
100
AcDbEntity
8
0
100
AcDbLine
10
-7.500433087759526
20
5.2829999999999986
30
3.6060393516368269e-16
11
-7.500433087759526
21
5.4999999999999991
31
1.2131842169368414e-33
0
LINE
5
114
100
AcDbEntity
8
0
100
AcDbLine
10
-7.500433087759526
20
5.4999999999999991
30
1.2131842169368414e-33
11
-6.0004330876595251
21
5.4999999999999982
31
-9.3028973310066338e-33
0
LINE
5
115
100
AcDbEntity
8
0
100
AcDbLine
10
-6.0004330876595251
20
5.4999999999999982
30
-9.3028973310066338e-33
11
-6.0004330876595251
21
5.2829999999999986
31
-6.8842569440339427e-16
0
LINE
5
116
100
AcDbEntity
8
0
100
AcDbLine
10
-6.0004330876595251
20
5.2829999999999986
30
-6.8842569440339427e-16
11
-5.0004330876595242
21
5.2829999999999995
31
-5.1358742280888145e-16
0
LINE
5
117
100
AcDbEntity
8
0
100
AcDbLine
10
-5.0004330876595242
20
5.2829999999999995
30
-5.1358742280888145e-16
11
-5.0004330876595242
21
5.5329999999999995
31
1.0927391974657044e-17
0
LINE
5
118
100
AcDbEntity
8
0
100
AcDbLine
10
-5.0004330876595242
20
5.5329999999999995
30
1.0927391974657044e-17
11
-3.5004330875595246
21
5.5329999999999995
31
2.1854783949314103e-17
0
LINE
5
119
100
AcDbEntity
8
0
100
AcDbLine
10
-3.5004330875595246
20
5.5329999999999995
30
2.1854783949314103e-17
11
-3.5004330875595255
21
5.2829999999999995
31
2.1854783949314103e-17
0
LINE
5
120
100
AcDbEntity
8
0
100
AcDbLine
10
-3.5004330875595255
20
5.2829999999999995
30
2.1854783949314103e-17
11
-2.500433087559526
21
5.2829999999999995
31
9.8346527771913471e-17
0
LINE
5
121
100
AcDbEntity
8
0
100
AcDbLine
10
-2.500433087559526
20
5.2829999999999995
30
9.8346527771913471e-17
11
-2.500433087559526
21
5.5
31
-1.7483827159451283e-16
0
LINE
5
122
100
AcDbEntity
8
0
100
AcDbLine
10
-2.500433087559526
20
5.5
30
-1.7483827159451283e-16
11
-2.4004330875595254
21
5.5
31
-1.6391087961985577e-16
0
ARC
5
123
100
AcDbEntity
8
0
100
AcDbCircle
10
-2.4004330875595254
20
5.5999999999999988
30
-3.5861346976355125e-48
40
0.099999999999999117
210
-5.7339126737413934e-30
220
-1.6391087961985721e-15
230
1
100
AcDbArc
50
-90
51
0
0
LINE
5
124
100
AcDbEntity
8
0
100
AcDbLine
10
-2.3004330875595262
20
5.5999999999999996
30
2.333696086924634e-34
11
-2.3004330875595258
21
5.9329999999999998
31
-1.5298348764519871e-16
0
ARC
5
125
100
AcDbEntity
8
0
100
AcDbCircle
10
-2.4004330875595254
20
5.9329999999999998
30
2.1854783949314085e-17
40
0.099999999999999811
210
1.7483827159451308e-15
220
-6.5038134216566072e-17
230
1
100
AcDbArc
50
0
51
90.000000000000512
0
LINE
5
126
100
AcDbEntity
8
0
100
AcDbLine
10
-2.4004330875595263
20
6.0329999999999995
30
2.1854783949314103e-17
11
-2.8624330875595252
21
6.0329999999999995
31
2.1854783949314103e-17
0
LINE
5
127
100
AcDbEntity
8
0
100
AcDbLine
10
-2.8624330875595256
20
6.0329999999999995
30
2.1854783949314103e-17
11
-2.8624330875595274
21
5.8000000000000016
31
-6.0659210846842069e-34
0
ARC
5
128
100
AcDbEntity
8
0
100
AcDbCircle
10
-3.018683087559527
20
5.8000000000000016
30
6.0659210846842069e-34
40
0.15624999999999983
210
5.5511151231257839e-17
220
9.781894788530073e-33
230
1
100
AcDbArc
50
-180
51
0
0
LINE
5
129
100
AcDbEntity
8
0
100
AcDbLine
10
-3.174933087559527
20
5.8000000000000016
30
8.6736173798840293e-18
11
-3.1749330875595247
21
6.0329999999999995
31
1.9669305554382694e-16
0
LINE
5
130
100
AcDbEntity
8
0
100
AcDbLine
10
-3.1749330875595247
20
6.0329999999999995
30
1.9669305554382694e-16
11
-3.6559330875595255
21
6.0329999999999995
31
3.7153132713833977e-16
0
LINE
5
131
100
AcDbEntity
8
0
100
AcDbLine
10
-3.6559330875595255
20
6.0329999999999995
30
3.7153132713833977e-16
11
-3.6559330875595264
21
5.8000000000000016
31
1.7483827159451283e-16
0
ARC
5
132
100
AcDbEntity
8
0
100
AcDbCircle
10
-3.8121830875595268
20
5.8000000000000016
30
1.748382715945128e-16
40
0.15624999999999983
210
5.551115123125795e-17
220
0
230
1
100
AcDbArc
50
-180
51
0
0
LINE
5
133
100
AcDbEntity
8
0
100
AcDbLine
10
-3.9684330875595268
20
5.8000000000000016
30
1.8351188897439686e-16
11
-3.9684330875595237
21
6.0329999999999995
31
-3.2782175923971154e-16
0
LINE
5
134
100
AcDbEntity
8
0
100
AcDbLine
10
-3.9684330875595237
20
6.0329999999999995
30
-3.2782175923971154e-16
11
-4.4494330875595249
21
6.0330000000000004
31
6.5564351847942322e-17
0
LINE
5
135
100
AcDbEntity
8
0
100
AcDbLine
10
-4.4494330875595249
20
6.0330000000000004
30
6.5564351847942322e-17
11
-4.4494330875595267
21
5.8000000000000016
31
-6.0659210846842069e-34
0
ARC
5
136
100
AcDbEntity
8
0
100
AcDbCircle
10
-4.6056830875595258
20
5.8000000000000016
30
-3.4967654318902565e-16
40
0.15624999999999983
210
5.5511151231257827e-17
220
1.2716463225089128e-31
230
1
100
AcDbArc
50
-180
51
0
0
LINE
5
137
100
AcDbEntity
8
0
100
AcDbLine
10
-4.7619330875595258
20
5.8000000000000016
30
-3.4100292580914162e-16
11
-4.7619330875595249
21
6.0330000000000004
31
2.1854783949314153e-17
0
LINE
5
138
100
AcDbEntity
8
0
100
AcDbLine
10
-4.7619330875595249
20
6.0330000000000004
30
2.1854783949314153e-17
11
-5.2429330875595239
21
6.0330000000000004
31
-2.8411219134108335e-16
0
LINE
5
139
100
AcDbEntity
8
0
100
AcDbLine
10
-5.2429330875595239
20
6.0330000000000004
30
-2.8411219134108335e-16
11
-5.2429330875595266
21
5.8000000000000016
31
-6.0659210846842069e-34
0
ARC
5
140
100
AcDbEntity
8
0
100
AcDbCircle
10
-5.3991830875595257
20
5.8000000000000016
30
3.4967654318902565e-16
40
0.15624999999999983
210
5.5511151231258074e-17
220
-1.271646322508913e-31
230
1
100
AcDbArc
50
-180
51
0
0
LINE
5
141
100
AcDbEntity
8
0
100
AcDbLine
10
-5.5554330875595257
20
5.8000000000000016
30
3.5835016056890974e-16
11
-5.5554330875595239
21
6.0330000000000004
31
2.1854783949314094e-17
0
LINE
5
142
100
AcDbEntity
8
0
100
AcDbLine
10
-5.5554330875595239
20
6.0330000000000004
30
2.1854783949314094e-17
11
-6.0364330875595238
21
6.0330000000000004
31
4.1524089503696795e-16
0
LINE
5
143
100
AcDbEntity
8
0
100
AcDbLine
10
-6.0364330875595238
20
6.0330000000000004
30
4.1524089503696795e-16
11
-6.0364330875595256
21
5.8000000000000016
31
-3.4967654318902565e-16
0
ARC
5
144
100
AcDbEntity
8
0
100
AcDbCircle
10
-6.1926830875595247
20
5.8000000000000016
30
3.4967654318902565e-16
40
0.15624999999999983
210
5.5511151231258074e-17
220
-2.5432926450178422e-31
230
1
100
AcDbArc
50
-180
51
0
0
LINE
5
145
100
AcDbEntity
8
0
100
AcDbLine
10
-6.3489330875595247
20
5.8000000000000016
30
3.5835016056890974e-16
11
-6.3489330875595238
21
6.0330000000000004
31
3.7153132713833977e-16
0
LINE
5
146
100
AcDbEntity
8
0
100
AcDbLine
10
-6.3489330875595238
20
6.0330000000000004
30
3.7153132713833977e-16
11
-6.8299330875595237
21
6.0330000000000004
31
3.7153132713833977e-16
0
LINE
5
147
100
AcDbEntity
8
0
100
AcDbLine
10
-6.8299330875595237
20
6.0330000000000004
30
3.7153132713833977e-16
11
-6.8299330875595254
21
5.8000000000000016
31
3.4967654318902565e-16
0
ARC
5
148
100
AcDbEntity
8
0
100
AcDbCircle
10
-6.9861830875595246
20
5.8000000000000016
30
3.4967654318902565e-16
40
0.15625000000000056
210
5.5511151231257827e-17
220
-1.2716463225089126e-31
230
1
100
AcDbArc
50
-180
51
0
0
LINE
5
149
100
AcDbEntity
8
0
100
AcDbLine
10
-7.1424330875595246
20
5.8000000000000016
30
3.5835016056890974e-16
11
-7.1424330875595237
21
6.0330000000000004
31
2.1854783949314054e-17
0
LINE
5
150
100
AcDbEntity
8
0
100
AcDbLine
10
-7.1424330875595237
20
6.0330000000000004
30
2.1854783949314054e-17
11
-7.6234330875595218
21
6.0330000000000004
31
2.1854783949314113e-17
0
LINE
5
151
100
AcDbEntity
8
0
100
AcDbLine
10
-7.6234330875595218
20
6.0330000000000004
30
2.1854783949314113e-17
11
-7.623433087559528
21
5.8000000000000016
31
6.9935308637805131e-16
0
ARC
5
152
100
AcDbEntity
8
0
100
AcDbCircle
10
-7.7796830875595253
20
5.8000000000000016
30
3.8821894941978924e-32
40
0.15624999999999914
210
5.5511151231257852e-17
220
-1.0071832712334623e-45
230
1
100
AcDbArc
50
-180
51
0
0
LINE
5
153
100
AcDbEntity
8
0
100
AcDbLine
10
-7.9359330875595244
20
5.8000000000000016
30
8.6736173798840308e-18
11
-7.9359330875595244
21
6.0330000000000004
31
-3.2782175923971154e-16
0
LINE
5
154
100
AcDbEntity
8
0
100
AcDbLine
10
-7.9359330875595244
20
6.0330000000000004
30
-3.2782175923971154e-16
11
-8.4169330875595243
21
6.0330000000000004
31
3.7153132713833977e-16
0
LINE
5
155
100
AcDbEntity
8
0
100
AcDbLine
10
-8.4169330875595243
20
6.0330000000000004
30
3.7153132713833977e-16
11
-8.4169330875595243
21
5.8000000000000016
31
-6.0659210846842069e-34
0
ARC
5
156
100
AcDbEntity
8
0
100
AcDbCircle
10
-8.5731830875595261
20
5.8000000000000016
30
6.0659210846842069e-34
40
0.15624999999999775
210
-3.8821894941968807e-33
220
-2.3867823284013756e-31
230
1
100
AcDbArc
50
-180
51
0
0
LWPOLYLINE
5
157
100
AcDbEntity
8
0
100
AcDbPolyline
90
59
70
1
43
0.0
10
-8.4169330875595261
20
5.8000000000000016
10
-8.4169330875595261
20
6.0330000000000004
10
-7.9359330875595262
20
6.0329999999999995
10
-7.9359330875595244
20
5.8000000000000016
42
0.99999999999999989
10
-7.6234330875595253
20
5.8000000000000016
10
-7.6234330875595253
20
6.0330000000000004
10
-7.1424330875595246
20
6.0329999999999995
10
-7.1424330875595237
20
5.8000000000000016
42
0.99999999999999989
10
-6.8299330875595254
20
5.8000000000000016
10
-6.8299330875595219
20
6.0330000000000004
10
-6.3489330875595247
20
6.0329999999999995
10
-6.3489330875595238
20
5.8000000000000016
42
0.99999999999999989
10
-6.0364330875595256
20
5.8000000000000016
10
-6.0364330875595247
20
6.0330000000000004
10
-5.5554330875595248
20
6.0329999999999995
10
-5.5554330875595248
20
5.8000000000000016
42
0.99999999999999989
10
-5.2429330875595257
20
5.8000000000000016
10
-5.2429330875595248
20
6.0330000000000004
10
-4.7619330875595249
20
6.0329999999999995
10
-4.761933087559524
20
5.8000000000000016
42
0.99999999999999989
10
-4.4494330875595258
20
5.8000000000000016
10
-4.449433087559524
20
6.0330000000000004
10
-3.968433087559526
20
6.0329999999999995
10
-3.9684330875595237
20
5.8000000000000016
42
0.99999999999999989
10
-3.6559330875595264
20
5.8000000000000016
10
-3.6559330875595255
20
6.0329999999999995
10
-3.1749330875595256
20
6.0329999999999995
10
-3.1749330875595261
20
5.8000000000000016
42
0.99999999999999989
10
-2.8624330875595274
20
5.8000000000000016
10
-2.8624330875595252
20
6.0329999999999995
10
-2.4004330875595259
20
6.0329999999999995
42
-0.41421356237309404
10
-2.3004330875595267
20
5.9329999999999998
10
-2.3004330875595262
20
5.5999999999999996
42
-0.41421356237309503
10
-2.4004330875595259
20
5.5
10
-2.500433087559526
20
5.5
10
-2.500433087559526
20
5.2829999999999995
10
-3.5004330875595255
20
5.2829999999999995
10
-3.5004330875595255
20
5.5329999999999995
10
-5.0004330876595251
20
5.5329999999999995
10
-5.0004330876595242
20
5.2829999999999995
10
-6.0004330876595251
20
5.2829999999999995
10
-6.0004330876595242
20
5.4999999999999991
10
-7.5004330877595251
20
5.4999999999999991
10
-7.500433087759526
20
5.2829999999999986
10
-8.5004330877595251
20
5.2829999999999995
10
-8.5004330877595251
20
5.4999999999999991
10
-9.2834330875595228
20
5.5000000000000009
10
-9.4004331051123824
20
5.5000001579757791
42
-0.41421351096194825
10
-9.5004330875595198
20
5.600000157975777
10
-9.5004330875595198
20
6.5000001755286396
10
-9.3066830875595219
20
6.5000001755286396
10
-9.3066830875595201
20
6.3000002872287064
42
0.99999999999999989
10
-8.9941830875595201
20
6.3000002872287064
10
-8.9941830875595201
20
6.5000001755286396
10
-8.8004330875595205
20
6.5000001755286396
10
-8.8004330875595205
20
6.1329999999999982
42
0.41421356237309503
10
-8.7004330875595226
20
6.0329999999999995
10
-8.7294330875595261
20
6.0330000000000004
10
-8.7294330875595278
20
5.8000000000000016
42
0.99999999999999989
0
LINE
5
158
100
AcDbEntity
8
0
100
AcDbLine
10
-9.2834330875595228
20
5.5000001579757773
30
3.6060393516368269e-16
11
-8.5004330877595251
21
5.5
31
-2.0210061074550295e-32
0
LINE
5
159
100
AcDbEntity
8
0
100
AcDbLine
10
-8.7294330875595243
20
6.0330000000000004
30
3.7153132713833967e-16
11
-8.7004330875595226
21
6.0329999999999995
31
3.7153132713833977e-16
0
ENDSEC
0
SECTION
2
OBJECTS
0
DICTIONARY
5
C
100
AcDbDictionary
3
ACAD_GROUP
350
D
3
ACAD_MLINESTYLE
350
17
0
DICTIONARY
5
D
100
AcDbDictionary
0
DICTIONARY
5
1A
330
C
100
AcDbDictionary
0
DICTIONARY
5
17
100
AcDbDictionary
0
ENDSEC
0
EOF
