0
SECTION
2
HEADER
9
$INSUNITS
70
1
9
$ACADVER
1
AC1014
9
$HANDSEED
5
FFFF
0
ENDSEC
0
SECTION
2
TABLES
0
TABLE
2
VPORT
5
8
100
AcDbSymbolTable
0
ENDTAB
0
TABLE
2
LTYPE
5
5
100
AcDbSymbolTable
0
LTYPE
5
14
100
AcDbSymbolTableRecord
100
AcDbLinetypeTableRecord
2
BYBLOCK
70
0
0
LTYPE
5
15
100
AcDbSymbolTableRecord
100
AcDbLinetypeTableRecord
2
BYLAYER
70
0
0
ENDTAB
0
TABLE
2
LAYER
5
2
100
AcDbSymbolTable
70
2
0
LAYER
5
50
100
AcDbSymbolTableRecord
100
AcDbLayerTableRecord
2
0
70
0
6
CONTINUOUS
0
ENDTAB
0
TABLE
2
STYLE
5
3
100
AcDbSymbolTable
70
1
0
STYLE
5
11
100
AcDbSymbolTableRecord
100
AcDbTextStyleTableRecord
2
STANDARD
70
0
0
ENDTAB
0
TABLE
2
VIEW
5
6
100
AcDbSymbolTable
70
0
0
ENDTAB
0
TABLE
2
UCS
5
7
100
AcDbSymbolTable
70
0
0
ENDTAB
0
TABLE
2
APPID
5
9
100
AcDbSymbolTable
70
2
0
APPID
5
12
100
AcDbSymbolTableRecord
100
AcDbRegAppTableRecord
2
ACAD
70
0
0
ENDTAB
0
TABLE
2
DIMSTYLE
5
A
100
AcDbSymbolTable
70
1
0
ENDTAB
0
TABLE
2
BLOCK_RECORD
5
1
100
AcDbSymbolTable
70
1
0
BLOCK_RECORD
5
1F
100
AcDbSymbolTableRecord
100
AcDbBlockTableRecord
2
*MODEL_SPACE
0
BLOCK_RECORD
5
1B
100
AcDbSymbolTableRecord
100
AcDbBlockTableRecord
2
*PAPER_SPACE
0
ENDTAB
0
ENDSEC
0
SECTION
2
BLOCKS
0
BLOCK
5
20
100
AcDbEntity
100
AcDbBlockBegin
2
*MODEL_SPACE
0
ENDBLK
5
21
100
AcDbEntity
100
AcDbBlockEnd
0
BLOCK
5
1C
100
AcDbEntity
100
AcDbBlockBegin
2
*PAPER_SPACE
0
ENDBLK
5
1D
100
AcDbEntity
100
AcDbBlockEnd
0
ENDSEC
0
SECTION
2
ENTITIES
0
LINE
5
100
100
AcDbEntity
8
0
100
AcDbLine
10
-7.9754830875595255
20
6.033000000000003
30
1.0927391974657052e-17
11
-7.9754830875595255
21
5.7999999999999998
31
0
0
ARC
5
101
100
AcDbEntity
8
0
100
AcDbCircle
10
-8.1316830875595247
20
5.8000000000000016
30
1.3469050507551221e-49
40
0.15620000000000089
210
6.7981553672344238e-33
220
-1.0867038610612952e-48
230
1
100
AcDbArc
50
180
51
360
0
LINE
5
102
100
AcDbEntity
8
0
100
AcDbLine
10
-8.2878830875595266
20
5.7999999999999998
30
1.0618718683620233e-33
11
-8.2878830875595249
21
6.0330000000000004
31
0
0
LINE
5
103
100
AcDbEntity
8
0
100
AcDbLine
10
-8.2878830875595249
20
6.0330000000000004
30
0
11
-8.7004330875595226
21
6.0329999999999995
31
1.0927391974657052e-17
0
ARC
5
104
100
AcDbEntity
8
0
100
AcDbCircle
10
-8.7004330875595226
20
6.1329999999999982
30
2.2897385862837076e-48
40
0.099999999999999117
210
3.3990776836172037e-33
220
2.5453323793798031e-46
230
1
100
AcDbArc
50
180
51
270
0
LINE
5
105
100
AcDbEntity
8
0
100
AcDbLine
10
-8.8004330875595222
20
6.1329999999999982
30
3.399077683617197e-34
11
-8.8004330875595222
21
6.5000001755286396
31
0
0
LINE
5
106
100
AcDbEntity
8
0
100
AcDbLine
10
-8.8004330875595222
20
6.5000001755286396
30
0
11
-8.9941830875595219
21
6.5000001755286396
31
-1.0438514143352163e-49
0
LINE
5
107
100
AcDbEntity
8
0
100
AcDbLine
10
-8.9941830875595219
20
6.5000001755286396
30
-1.0438514143352163e-49
11
-8.9941830875595219
21
6.3000002872287064
31
0
0
ARC
5
108
100
AcDbEntity
8
0
100
AcDbCircle
10
-9.1504330875595219
20
6.3000002872287064
30
0
40
0.15625000000000056
210
6.7981553672344553e-33
220
1.2325951644078309e-32
230
1
100
AcDbArc
50
-180
51
0
0
LINE
5
109
100
AcDbEntity
8
0
100
AcDbLine
10
-9.3066830875595219
20
6.3000002872287064
30
1.0622117761303873e-33
11
-9.3066830875595219
21
6.5000001755286396
31
0
0
LINE
5
110
100
AcDbEntity
8
0
100
AcDbLine
10
-9.3066830875595219
20
6.5000001755286396
30
0
11
-9.5004330875595215
21
6.5000001755286396
31
-5.0508939403317164e-50
0
LINE
5
111
100
AcDbEntity
8
0
100
AcDbLine
10
-9.5004330875595215
20
6.5000001755286396
30
-5.0508939403317164e-50
11
-9.5004330875595215
21
5.600000157975777
31
0
0
ARC
5
112
100
AcDbEntity
8
0
100
AcDbCircle
10
-9.4004330875595201
20
5.6000001579757779
30
0
40
0.10000000000000052
210
8.6201923248327367e-47
220
-1.2325951644078309e-32
230
1
100
AcDbArc
50
180
51
269.99998994294867
0
LINE
5
113
100
AcDbEntity
8
0
100
AcDbLine
10
-9.4004331051123859
20
5.5000001579757791
30
-1.23259505537814e-33
11
-9.2834330875595246
21
5.5000001579757773
31
6.303515637533771e-50
0
LINE
5
114
100
AcDbEntity
8
0
100
AcDbLine
10
-8.5004330877595251
20
5.5
30
0
11
-8.5004330877595251
21
5.2829999999999995
31
0
0
LINE
5
115
100
AcDbEntity
8
0
100
AcDbLine
10
-8.5004330877595251
20
5.2829999999999995
30
0
11
-7.500433087759526
21
5.2829999999999986
31
0
0
LINE
5
116
100
AcDbEntity
8
0
100
AcDbLine
10
-7.500433087759526
20
5.2829999999999986
30
0
11
-7.500433087759526
21
5.4999999999999991
31
0
0
LINE
5
117
100
AcDbEntity
8
0
100
AcDbLine
10
-7.500433087759526
20
5.4999999999999991
30
0
11
-6.0004330876595251
21
5.4999999999999991
31
8.0814303050695066e-49
0
LINE
5
118
100
AcDbEntity
8
0
100
AcDbLine
10
-6.0004330876595251
20
5.4999999999999991
30
8.0814303050695066e-49
11
-6.000433087659526
21
5.2829999999999986
31
0
0
LINE
5
119
100
AcDbEntity
8
0
100
AcDbLine
10
-6.000433087659526
20
5.2829999999999986
30
0
11
-5.000433087659526
21
5.2829999999999995
31
0
0
LINE
5
120
100
AcDbEntity
8
0
100
AcDbLine
10
-5.000433087659526
20
5.2829999999999995
30
0
11
-5.000433087659526
21
5.5329999999999995
31
0
0
LINE
5
121
100
AcDbEntity
8
0
100
AcDbLine
10
-5.000433087659526
20
5.5329999999999995
30
0
11
-3.500433087559526
21
5.5329999999999995
31
8.0814303050695035e-49
0
LINE
5
122
100
AcDbEntity
8
0
100
AcDbLine
10
-3.500433087559526
20
5.5329999999999995
30
8.0814303050695035e-49
11
-3.500433087559526
21
5.2829999999999995
31
0
0
LINE
5
123
100
AcDbEntity
8
0
100
AcDbLine
10
-3.500433087559526
20
5.2829999999999995
30
0
11
-2.5004330875595264
21
5.2829999999999995
31
5.3876202030204922e-49
0
LINE
5
124
100
AcDbEntity
8
0
100
AcDbLine
10
-2.5004330875595264
20
5.2829999999999995
30
5.3876202030204922e-49
11
-2.5004330875595264
21
5.5
31
0
0
LINE
5
125
100
AcDbEntity
8
0
100
AcDbLine
10
-2.5004330875595264
20
5.5
30
0
11
-2.4004330875595263
21
5.5
31
5.387620203020504e-50
0
ARC
5
126
100
AcDbEntity
8
0
100
AcDbCircle
10
-2.4004330875595254
20
5.5999999999999988
30
2.4673522488982151e-64
40
0.099999999999999117
210
-5.3876202030204466e-49
220
5.3876202030205826e-49
230
1
100
AcDbArc
50
-90.000000000000512
51
0
0
LINE
5
127
100
AcDbEntity
8
0
100
AcDbLine
10
-2.3004330875595262
20
5.5999999999999996
30
5.3876202030204793e-50
11
-2.3004330875595258
21
5.9329999999999998
31
0
0
ARC
5
128
100
AcDbEntity
8
0
100
AcDbCircle
10
-2.4004330875595259
20
5.9329999999999998
30
-1.0927391974657052e-17
40
0.10000000000000017
210
-1.0927391974657033e-16
220
7.6421053035390232e-31
230
1
100
AcDbArc
50
0
51
90.000000000000512
0
LINE
5
129
100
AcDbEntity
8
0
100
AcDbLine
10
-2.4004330875595268
20
6.0329999999999995
30
-1.0927391974657052e-17
11
-3.2144830875595263
21
6.0330000000000004
31
0
0
LINE
5
130
100
AcDbEntity
8
0
100
AcDbLine
10
-3.2144830875595263
20
6.0330000000000004
30
0
11
-3.2144830875595263
21
5.7999999999999998
31
-2.4263684338736828e-33
0
ARC
5
131
100
AcDbEntity
8
0
100
AcDbCircle
10
-3.3706830875595264
20
5.7999999999999998
30
-2.3570838388214636e-48
40
0.1562000000000002
210
6.7981553672344703e-33
220
-1.0867038610612978e-48
230
1
100
AcDbArc
50
-180
51
0
0
LINE
5
132
100
AcDbEntity
8
0
100
AcDbLine
10
-3.526883087559527
20
5.7999999999999998
30
1.0618718683620233e-33
11
-3.5268830875595261
21
6.0329999999999977
31
-1.0927391974657055e-17
0
LINE
5
133
100
AcDbEntity
8
0
100
AcDbLine
10
-3.5268830875595261
20
6.0329999999999977
30
-1.0927391974657055e-17
11
-4.0079830875595261
21
6.0330000000000004
31
0
0
LINE
5
134
100
AcDbEntity
8
0
100
AcDbLine
10
-4.0079830875595261
20
6.0330000000000004
30
0
11
-4.0079830875595261
21
5.7999999999999998
31
-2.4263684338736828e-33
0
ARC
5
135
100
AcDbEntity
8
0
100
AcDbCircle
10
-4.1641830875595263
20
5.7999999999999998
30
-2.3570838388214636e-48
40
0.1562000000000002
210
6.7981553672344703e-33
220
-1.0867038610612978e-48
230
1
100
AcDbArc
50
-180
51
0
0
LINE
5
136
100
AcDbEntity
8
0
100
AcDbLine
10
-4.3203830875595264
20
5.7999999999999998
30
1.0618718683620233e-33
11
-4.3203830875595255
21
6.0329999999999977
31
-1.0927391974657055e-17
0
LINE
5
137
100
AcDbEntity
8
0
100
AcDbLine
10
-4.3203830875595255
20
6.0329999999999977
30
-1.0927391974657055e-17
11
-4.801483087559526
21
6.0330000000000013
31
0
0
LINE
5
138
100
AcDbEntity
8
0
100
AcDbLine
10
-4.801483087559526
20
6.0330000000000013
30
0
11
-4.801483087559526
21
5.7999999999999998
31
-2.1854783949314103e-17
0
ARC
5
139
100
AcDbEntity
8
0
100
AcDbCircle
10
-4.9576830875595261
20
5.7999999999999998
30
2.1854783949314103e-17
40
0.1562000000000002
210
0
220
0
230
1
100
AcDbArc
50
-180
51
0
0
LINE
5
140
100
AcDbEntity
8
0
100
AcDbLine
10
-5.1138830875595263
20
5.7999999999999998
30
2.1854783949314103e-17
11
-5.1138830875595254
21
6.0329999999999986
31
-2.4263684338736828e-33
0
LINE
5
141
100
AcDbEntity
8
0
100
AcDbLine
10
-5.1138830875595254
20
6.0329999999999986
30
-2.4263684338736828e-33
11
-5.5949830875595259
21
6.0330000000000013
31
1.0927391974657052e-17
0
LINE
5
142
100
AcDbEntity
8
0
100
AcDbLine
10
-5.5949830875595259
20
6.0330000000000013
30
1.0927391974657052e-17
11
-5.5949830875595259
21
5.7999999999999998
31
-2.4263684338736828e-33
0
ARC
5
143
100
AcDbEntity
8
0
100
AcDbCircle
10
-5.751183087559526
20
5.7999999999999998
30
-2.3570838388214636e-48
40
0.1562000000000002
210
6.7981553672344703e-33
220
-1.0867038610612978e-48
230
1
100
AcDbArc
50
-180
51
0
0
LINE
5
144
100
AcDbEntity
8
0
100
AcDbLine
10
-5.9073830875595261
20
5.7999999999999998
30
1.0618718683620233e-33
11
-5.9073830875595252
21
6.0329999999999986
31
-2.4263684338736828e-33
0
LINE
5
145
100
AcDbEntity
8
0
100
AcDbLine
10
-5.9073830875595252
20
6.0329999999999986
30
-2.4263684338736828e-33
11
-6.3884830875595275
21
6.0330000000000021
31
1.0927391974657052e-17
0
LINE
5
146
100
AcDbEntity
8
0
100
AcDbLine
10
-6.3884830875595275
20
6.0330000000000021
30
1.0927391974657052e-17
11
-6.3884830875595258
21
5.7999999999999998
31
0
0
ARC
5
147
100
AcDbEntity
8
0
100
AcDbCircle
10
-6.544683087559525
20
5.8000000000000016
30
1.3469050507551221e-49
40
0.15620000000000089
210
6.7981553672344238e-33
220
-1.0867038610612952e-48
230
1
100
AcDbArc
50
180
51
360
0
LINE
5
148
100
AcDbEntity
8
0
100
AcDbLine
10
-6.700883087559526
20
5.7999999999999998
30
1.0618718683620233e-33
11
-6.7008830875595251
21
6.0329999999999995
31
-1.0927391974657052e-17
0
LINE
5
149
100
AcDbEntity
8
0
100
AcDbLine
10
-6.7008830875595251
20
6.0329999999999995
30
-1.0927391974657052e-17
11
-7.1819830875595256
21
6.0330000000000021
31
0
0
LINE
5
150
100
AcDbEntity
8
0
100
AcDbLine
10
-7.1819830875595256
20
6.0330000000000021
30
0
11
-7.1819830875595256
21
5.7999999999999998
31
-2.1854783949314103e-17
0
ARC
5
151
100
AcDbEntity
8
0
100
AcDbCircle
10
-7.3381830875595249
20
5.8000000000000016
30
2.1854783949314103e-17
40
0.15620000000000089
210
0
220
0
230
1
100
AcDbArc
50
180
51
360
0
LINE
5
152
100
AcDbEntity
8
0
100
AcDbLine
10
-7.4943830875595259
20
5.7999999999999998
30
2.1854783949314103e-17
11
-7.494383087559525
21
6.0329999999999995
31
0
0
LINE
5
153
100
AcDbEntity
8
0
100
AcDbLine
10
-7.494383087559525
20
6.0329999999999995
30
0
11
-7.9754830875595255
21
6.033000000000003
31
1.0927391974657052e-17
0
LWPOLYLINE
5
154
100
AcDbEntity
8
0
100
AcDbPolyline
90
55
70
1
43
0.0
10
-8.2878830875595249
20
6.0330000000000004
10
-8.2878830875595249
20
5.7999999999999998
42
0.99999999999999989
10
-7.9754830875595237
20
5.7999999999999998
10
-7.9754830875595255
20
6.033000000000003
10
-7.4943830875595259
20
6.0329999999999995
10
-7.494383087559525
20
5.7999999999999998
42
0.99999999999999989
10
-7.1819830875595239
20
5.7999999999999998
10
-7.1819830875595256
20
6.0330000000000021
10
-6.700883087559526
20
6.0329999999999995
10
-6.7008830875595251
20
5.7999999999999998
42
0.99999999999999989
10
-6.388483087559524
20
5.7999999999999998
10
-6.3884830875595258
20
6.0330000000000021
10
-5.9073830875595252
20
6.0329999999999995
10
-5.907383087559527
20
5.7999999999999998
42
0.99999999999999989
10
-5.5949830875595259
20
5.7999999999999998
10
-5.594983087559525
20
6.0330000000000013
10
-5.1138830875595254
20
6.0329999999999995
10
-5.1138830875595271
20
5.7999999999999998
42
0.99999999999999989
10
-4.801483087559526
20
5.7999999999999998
10
-4.8014830875595251
20
6.0330000000000013
10
-4.3203830875595255
20
6.0329999999999995
10
-4.3203830875595273
20
5.7999999999999998
42
0.99999999999999989
10
-4.0079830875595261
20
5.7999999999999998
10
-4.0079830875595253
20
6.0330000000000004
10
-3.5268830875595261
20
6.0329999999999995
10
-3.5268830875595274
20
5.7999999999999998
42
0.99999999999999989
10
-3.2144830875595263
20
5.7999999999999998
10
-3.2144830875595258
20
6.0330000000000004
10
-2.4004330875595268
20
6.0329999999999995
42
-0.41421356237309503
10
-2.3004330875595267
20
5.9329999999999998
10
-2.3004330875595262
20
5.5999999999999996
42
-0.41421356237309503
10
-2.4004330875595259
20
5.5
10
-2.5004330875595264
20
5.5
10
-2.5004330875595264
20
5.2829999999999995
10
-3.500433087559526
20
5.2829999999999995
10
-3.500433087559526
20
5.5329999999999995
10
-5.000433087659526
20
5.5329999999999995
10
-5.000433087659526
20
5.2829999999999995
10
-6.000433087659526
20
5.2829999999999995
10
-6.000433087659526
20
5.4999999999999991
10
-7.500433087759526
20
5.4999999999999991
10
-7.500433087759526
20
5.2829999999999986
10
-8.5004330877595251
20
5.2829999999999995
10
-8.5004330877595251
20
5.4999999999999991
10
-9.2834330875595246
20
5.5000000000000009
10
-9.4004331051123859
20
5.5000001579757791
42
-0.41421351096194414
10
-9.5004330875595215
20
5.600000157975777
10
-9.5004330875595215
20
6.5000001755286396
10
-9.3066830875595219
20
6.5000001755286396
10
-9.3066830875595219
20
6.3000002872287064
42
0.99999999999999989
10
-8.9941830875595219
20
6.3000002872287064
10
-8.9941830875595219
20
6.5000001755286396
10
-8.8004330875595222
20
6.5000001755286396
10
-8.8004330875595222
20
6.1329999999999982
42
0.41421356237309503
10
-8.7004330875595226
20
6.0329999999999995
0
LINE
5
155
100
AcDbEntity
8
0
100
AcDbLine
10
-9.2834330875595246
20
5.5000001579757773
30
6.303515637533771e-50
11
-8.5004330877595251
21
5.5
31
0
0
ENDSEC
0
SECTION
2
OBJECTS
0
DICTIONARY
5
C
100
AcDbDictionary
3
ACAD_GROUP
350
D
3
ACAD_MLINESTYLE
350
17
0
DICTIONARY
5
D
100
AcDbDictionary
0
DICTIONARY
5
1A
330
C
100
AcDbDictionary
0
DICTIONARY
5
17
100
AcDbDictionary
0
ENDSEC
0
EOF
