0
SECTION
2
HEADER
9
$INSUNITS
70
1
9
$ACADVER
1
AC1014
9
$HANDSEED
5
FFFF
0
ENDSEC
0
SECTION
2
TABLES
0
TABLE
2
VPORT
5
8
100
AcDbSymbolTable
0
ENDTAB
0
TABLE
2
LTYPE
5
5
100
AcDbSymbolTable
0
LTYPE
5
14
100
AcDbSymbolTableRecord
100
AcDbLinetypeTableRecord
2
BYBLOCK
70
0
0
LTYPE
5
15
100
AcDbSymbolTableRecord
100
AcDbLinetypeTableRecord
2
BYLAYER
70
0
0
ENDTAB
0
TABLE
2
LAYER
5
2
100
AcDbSymbolTable
70
2
0
LAYER
5
50
100
AcDbSymbolTableRecord
100
AcDbLayerTableRecord
2
0
70
0
6
CONTINUOUS
0
ENDTAB
0
TABLE
2
STYLE
5
3
100
AcDbSymbolTable
70
1
0
STYLE
5
11
100
AcDbSymbolTableRecord
100
AcDbTextStyleTableRecord
2
STANDARD
70
0
0
ENDTAB
0
TABLE
2
VIEW
5
6
100
AcDbSymbolTable
70
0
0
ENDTAB
0
TABLE
2
UCS
5
7
100
AcDbSymbolTable
70
0
0
ENDTAB
0
TABLE
2
APPID
5
9
100
AcDbSymbolTable
70
2
0
APPID
5
12
100
AcDbSymbolTableRecord
100
AcDbRegAppTableRecord
2
ACAD
70
0
0
ENDTAB
0
TABLE
2
DIMSTYLE
5
A
100
AcDbSymbolTable
70
1
0
ENDTAB
0
TABLE
2
BLOCK_RECORD
5
1
100
AcDbSymbolTable
70
1
0
BLOCK_RECORD
5
1F
100
AcDbSymbolTableRecord
100
AcDbBlockTableRecord
2
*MODEL_SPACE
0
BLOCK_RECORD
5
1B
100
AcDbSymbolTableRecord
100
AcDbBlockTableRecord
2
*PAPER_SPACE
0
ENDTAB
0
ENDSEC
0
SECTION
2
BLOCKS
0
BLOCK
5
20
100
AcDbEntity
100
AcDbBlockBegin
2
*MODEL_SPACE
0
ENDBLK
5
21
100
AcDbEntity
100
AcDbBlockEnd
0
BLOCK
5
1C
100
AcDbEntity
100
AcDbBlockBegin
2
*PAPER_SPACE
0
ENDBLK
5
1D
100
AcDbEntity
100
AcDbBlockEnd
0
ENDSEC
0
SECTION
2
ENTITIES
0
LINE
5
100
100
AcDbEntity
8
0
100
AcDbLine
10
-8.680933087559529
20
5.8000001851029301
30
-1.070884413516391e-15
11
-8.6809330875595272
21
6.0330000000000021
31
6.9935308637805131e-16
0
ARC
5
101
100
AcDbEntity
8
0
100
AcDbCircle
10
-8.7004330875595262
20
6.1329999999999991
30
6.9935308637805131e-16
40
0.099999999999997716
210
3.9866065514327936e-37
220
2.8502101649964348e-23
230
1
100
AcDbArc
50
180
51
270.00000000000102
0
LINE
5
102
100
AcDbEntity
8
0
100
AcDbLine
10
-8.800433087559524
20
6.1330000000000009
30
6.9935308637805131e-16
11
-8.8004330875595222
21
6.5000001755286405
31
6.9935308637805131e-16
0
LINE
5
103
100
AcDbEntity
8
0
100
AcDbLine
10
-8.8004330875595222
20
6.5000001755286405
30
6.9935308637805131e-16
11
-8.9941830875595219
21
6.5000001755286405
31
7.1028047835270834e-16
0
LINE
5
104
100
AcDbEntity
8
0
100
AcDbLine
10
-8.9941830875595219
20
6.5000001755286405
30
7.1028047835270834e-16
11
-8.9941830875595219
21
6.3000002872287073
31
2.1854783949314103e-17
0
ARC
5
105
100
AcDbEntity
8
0
100
AcDbCircle
10
-9.1504330875595237
20
6.3000002872287073
30
7.1028047835270834e-16
40
0.15625000000000056
210
0
220
0
230
1
100
AcDbArc
50
-180
51
0
0
LINE
5
106
100
AcDbEntity
8
0
100
AcDbLine
10
-9.3066830875595237
20
6.3000002872287073
30
7.1028047835270834e-16
11
-9.3066830875595219
21
6.5000001755286405
31
7.1028047835270834e-16
0
LINE
5
107
100
AcDbEntity
8
0
100
AcDbLine
10
-9.3066830875595219
20
6.5000001755286405
30
7.1028047835270834e-16
11
-9.5004330875595215
21
6.5000001755286405
31
-1.049029629567077e-15
0
LINE
5
108
100
AcDbEntity
8
0
100
AcDbLine
10
-9.5004330875595215
20
6.5000001755286405
30
-1.049029629567077e-15
11
-9.5004330875595215
21
5.6000001579757788
31
-1.049029629567077e-15
0
ARC
5
109
100
AcDbEntity
8
0
100
AcDbCircle
10
-9.4004330875595219
20
5.6000001579757797
30
-1.070884413516391e-15
40
0.099999999999999117
210
2.1854783949314296e-16
220
2.8226490401782307e-30
230
1
100
AcDbArc
50
180
51
269.99998994294867
0
LINE
5
110
100
AcDbEntity
8
0
100
AcDbLine
10
-9.4004331051123877
20
5.5000001579757809
30
-1.070884413516391e-15
11
-9.2834330875595263
21
5.50000015797578
31
6.8842569440339427e-16
0
LINE
5
111
100
AcDbEntity
8
0
100
AcDbLine
10
-8.5004330877595251
20
5.5000000000000018
30
-3.7153132713833982e-16
11
-8.5004330877595251
21
5.2830000000000021
31
-7.1028047835270834e-16
0
LINE
5
112
100
AcDbEntity
8
0
100
AcDbLine
10
-8.5004330877595251
20
5.2830000000000021
30
-7.1028047835270834e-16
11
-7.500433087759526
21
5.2830000000000013
31
-7.2120787032736537e-16
0
LINE
5
113
100
AcDbEntity
8
0
100
AcDbLine
10
-7.500433087759526
20
5.2830000000000013
30
-7.2120787032736537e-16
11
-7.500433087759526
21
5.5000000000000009
31
-3.9338611108765388e-16
0
LINE
5
114
100
AcDbEntity
8
0
100
AcDbLine
10
-7.500433087759526
20
5.5000000000000009
30
-3.9338611108765388e-16
11
-6.000433087659526
21
5.5000000000000009
31
-4.5895046293559618e-16
0
LINE
5
115
100
AcDbEntity
8
0
100
AcDbLine
10
-6.000433087659526
20
5.5000000000000009
30
-4.5895046293559618e-16
11
-6.000433087659526
21
5.2830000000000004
31
6.8842569440339427e-16
0
LINE
5
116
100
AcDbEntity
8
0
100
AcDbLine
10
-6.000433087659526
20
5.2830000000000004
30
6.8842569440339427e-16
11
-5.0004330876595251
21
5.2830000000000013
31
5.9007916663148078e-16
0
LINE
5
117
100
AcDbEntity
8
0
100
AcDbLine
10
-5.0004330876595251
20
5.2830000000000013
30
5.9007916663148078e-16
11
-5.0004330876595269
21
5.5330000000000013
31
-2.1854783949314113e-17
0
LINE
5
118
100
AcDbEntity
8
0
100
AcDbLine
10
-5.0004330876595269
20
5.5330000000000013
30
-2.1854783949314113e-17
11
-3.5004330875595269
21
5.5330000000000013
31
-1.0927391974657055e-17
0
LINE
5
119
100
AcDbEntity
8
0
100
AcDbLine
10
-3.5004330875595269
20
5.5330000000000013
30
-1.0927391974657055e-17
11
-3.500433087559526
21
5.2830000000000013
31
1.6391087961985577e-16
0
LINE
5
120
100
AcDbEntity
8
0
100
AcDbLine
10
-3.500433087559526
20
5.2830000000000013
30
1.6391087961985577e-16
11
-2.5004330875595264
21
5.2830000000000013
31
1.5298348764519871e-16
0
LINE
5
121
100
AcDbEntity
8
0
100
AcDbLine
10
-2.5004330875595264
20
5.2830000000000013
30
1.5298348764519871e-16
11
-2.5004330875595264
21
5.5000000000000009
31
1.3112870369588462e-16
0
LINE
5
122
100
AcDbEntity
8
0
100
AcDbLine
10
-2.5004330875595264
20
5.5000000000000009
30
1.3112870369588462e-16
11
-2.4004330875595268
21
5.5000000000000009
31
1.4751979165787019e-16
0
ARC
5
123
100
AcDbEntity
8
0
100
AcDbCircle
10
-2.4004330875595263
20
5.6000000000000005
30
-2.1854783949314103e-17
40
0.099999999999999117
210
5.9226316102429519e-30
220
1.693745756071858e-15
230
1
100
AcDbArc
50
-90.000000000000256
51
0
0
LINE
5
124
100
AcDbEntity
8
0
100
AcDbLine
10
-2.3004330875595271
20
5.6000000000000014
30
-2.1854783949314103e-17
11
-2.3004330875595258
21
5.9330000000000007
31
-1.0927391974657073e-17
0
ARC
5
125
100
AcDbEntity
8
0
100
AcDbCircle
10
-2.4004330875595263
20
5.9330000000000016
30
-1.6391087961985577e-16
40
0.10000000000000052
210
-1.5298348764519793e-15
220
-3.2519067108265915e-17
230
1
100
AcDbArc
50
0
51
90.000000000000256
0
LINE
5
126
100
AcDbEntity
8
0
100
AcDbLine
10
-8.6809330875595272
20
6.0330000000000021
30
7.1028047835270834e-16
11
-8.7004330875595226
21
6.0330000000000013
31
6.9935308637805131e-16
0
LINE
5
127
100
AcDbEntity
8
0
100
AcDbLine
10
-3.6074330875595275
20
6.0330000000000013
30
1.8576566356916988e-16
11
-3.607433087559528
21
5.8000001851029301
31
-2.18547839493141e-17
0
ARC
5
128
100
AcDbEntity
8
0
100
AcDbCircle
10
-3.763683087559528
20
5.8000001851029301
30
-2.1854783949314103e-17
40
0.15624999999999983
210
0
220
0
230
1
100
AcDbArc
50
-180
51
0
0
LINE
5
129
100
AcDbEntity
8
0
100
AcDbLine
10
-3.919933087559528
20
5.8000001851029301
30
-2.1854783949314103e-17
11
-3.9199330875595271
21
6.0330000000000013
31
3.4967654318902565e-16
0
LINE
5
130
100
AcDbEntity
8
0
100
AcDbLine
10
-3.9199330875595271
20
6.0330000000000013
30
3.4967654318902565e-16
11
-4.4009330875595269
21
6.0330000000000013
31
3.168943672650545e-16
0
LINE
5
131
100
AcDbEntity
8
0
100
AcDbLine
10
-4.4009330875595269
20
6.0330000000000013
30
3.168943672650545e-16
11
-4.4009330875595287
21
5.8000001851029301
31
-2.18547839493141e-17
0
ARC
5
132
100
AcDbEntity
8
0
100
AcDbCircle
10
-4.5571830875595278
20
5.8000001851029301
30
-3.7153132713833977e-16
40
0.15624999999999983
210
0
220
0
230
1
100
AcDbArc
50
-180
51
0
0
LINE
5
133
100
AcDbEntity
8
0
100
AcDbLine
10
-4.7134330875595278
20
5.8000001851029301
30
-3.7153132713833977e-16
11
-4.7134330875595278
21
6.0330000000000013
31
-4.8527368677473655e-33
0
LINE
5
134
100
AcDbEntity
8
0
100
AcDbLine
10
-4.7134330875595278
20
6.0330000000000013
30
-4.8527368677473655e-33
11
-5.1944330875595277
21
6.0330000000000013
31
1.0927391974657052e-17
0
LINE
5
135
100
AcDbEntity
8
0
100
AcDbLine
10
-5.1944330875595277
20
6.0330000000000013
30
1.0927391974657052e-17
11
-5.1944330875595277
21
5.8000001851029301
31
-3.7153132713833977e-16
0
ARC
5
136
100
AcDbEntity
8
0
100
AcDbCircle
10
-5.3506830875595277
20
5.8000001851029301
30
-2.1854783949314103e-17
40
0.15624999999999983
210
0
220
0
230
1
100
AcDbArc
50
-180
51
0
0
LINE
5
137
100
AcDbEntity
8
0
100
AcDbLine
10
-5.5069330875595277
20
5.8000001851029301
30
-2.1854783949314103e-17
11
-5.5069330875595277
21
6.0330000000000013
31
-3.4967654318902565e-16
0
LINE
5
138
100
AcDbEntity
8
0
100
AcDbLine
10
-5.5069330875595277
20
6.0330000000000013
30
-3.4967654318902565e-16
11
-5.9879330875595276
21
6.0330000000000013
31
-2.9503958331574039e-16
0
LINE
5
139
100
AcDbEntity
8
0
100
AcDbLine
10
-5.9879330875595276
20
6.0330000000000013
30
-2.9503958331574039e-16
11
-5.9879330875595285
21
5.8000001851029293
31
-2.18547839493141e-17
0
ARC
5
140
100
AcDbEntity
8
0
100
AcDbCircle
10
-6.1441830875595285
20
5.8000001851029293
30
-2.1854783949314103e-17
40
0.15625000000000056
210
0
220
0
230
1
100
AcDbArc
50
-180
51
0
0
LINE
5
141
100
AcDbEntity
8
0
100
AcDbLine
10
-6.3004330875595285
20
5.8000001851029293
30
-2.1854783949314103e-17
11
-6.3004330875595276
21
6.0330000000000013
31
3.4967654318902565e-16
0
LINE
5
142
100
AcDbEntity
8
0
100
AcDbLine
10
-6.3004330875595276
20
6.0330000000000013
30
3.4967654318902565e-16
11
-6.7814330875595275
21
6.0330000000000013
31
3.6060393516368269e-16
0
LINE
5
143
100
AcDbEntity
8
0
100
AcDbLine
10
-6.7814330875595275
20
6.0330000000000013
30
3.6060393516368269e-16
11
-6.7814330875595292
21
5.8000001851029293
31
3.2782175923971154e-16
0
ARC
5
144
100
AcDbEntity
8
0
100
AcDbCircle
10
-6.9376830875595283
20
5.8000001851029293
30
3.2782175923971154e-16
40
0.15625000000000056
210
0
220
0
230
1
100
AcDbArc
50
-180
51
0
0
LINE
5
145
100
AcDbEntity
8
0
100
AcDbLine
10
-7.0939330875595283
20
5.8000001851029293
30
3.2782175923971154e-16
11
-7.0939330875595275
21
6.0330000000000013
31
6.9935308637805131e-16
0
LINE
5
146
100
AcDbEntity
8
0
100
AcDbLine
10
-7.0939330875595275
20
6.0330000000000013
30
6.9935308637805131e-16
11
-7.5749330875595273
21
6.0330000000000013
31
6.6657091045408011e-16
0
LINE
5
147
100
AcDbEntity
8
0
100
AcDbLine
10
-7.5749330875595273
20
6.0330000000000013
30
6.6657091045408011e-16
11
-7.5749330875595273
21
5.8000001851029301
31
-3.7153132713833977e-16
0
ARC
5
148
100
AcDbEntity
8
0
100
AcDbCircle
10
-7.7311830875595264
20
5.800000185102931
30
-3.7153132713833977e-16
40
0.15625000000000056
210
0
220
0
230
1
100
AcDbArc
50
180
51
360
0
LINE
5
149
100
AcDbEntity
8
0
100
AcDbLine
10
-7.8874330875595273
20
5.8000001851029301
30
-3.7153132713833977e-16
11
-7.8874330875595273
21
6.0330000000000021
31
6.9935308637805131e-16
0
LINE
5
150
100
AcDbEntity
8
0
100
AcDbLine
10
-7.8874330875595273
20
6.0330000000000021
30
6.9935308637805131e-16
11
-8.3684330875595272
21
6.0330000000000021
31
1.0927391974657052e-17
0
LINE
5
151
100
AcDbEntity
8
0
100
AcDbLine
10
-8.3684330875595272
20
6.0330000000000021
30
1.0927391974657052e-17
11
-8.368433087559529
21
5.8000001851029301
31
3.2782175923971154e-16
0
ARC
5
152
100
AcDbEntity
8
0
100
AcDbCircle
10
-8.5246830875595254
20
5.800000185102931
30
-1.070884413516391e-15
40
0.15625000000000194
210
0
220
0
230
1
100
AcDbArc
50
180
51
360
0
LWPOLYLINE
5
153
100
AcDbEntity
8
0
100
AcDbPolyline
90
55
70
1
43
0.0
10
-8.6809330875595272
20
6.0330000000000021
10
-8.680933087559529
20
5.8000001851029301
42
0.99999999999999989
10
-8.3684330875595254
20
5.8000001851029301
10
-8.3684330875595272
20
6.0330000000000021
10
-7.8874330875595282
20
6.0330000000000004
10
-7.8874330875595273
20
5.8000001851029301
42
0.99999999999999989
10
-7.5749330875595255
20
5.8000001851029301
10
-7.5749330875595255
20
6.0330000000000021
10
-7.0939330875595275
20
6.0330000000000004
10
-7.0939330875595283
20
5.8000001851029293
42
0.99999999999999989
10
-6.7814330875595275
20
5.8000001851029293
10
-6.7814330875595275
20
6.0330000000000013
10
-6.3004330875595258
20
6.0330000000000004
10
-6.3004330875595276
20
5.8000001851029293
42
0.99999999999999989
10
-5.9879330875595285
20
5.8000001851029293
10
-5.9879330875595276
20
6.0330000000000013
10
-5.5069330875595259
20
6.0330000000000004
10
-5.5069330875595277
20
5.8000001851029301
42
0.99999999999999989
10
-5.1944330875595277
20
5.8000001851029301
10
-5.1944330875595277
20
6.0330000000000013
10
-4.7134330875595278
20
6.0330000000000004
10
-4.7134330875595278
20
5.8000001851029301
42
0.99999999999999989
10
-4.4009330875595278
20
5.8000001851029301
10
-4.4009330875595261
20
6.0330000000000013
10
-3.919933087559528
20
6.0330000000000004
10
-3.9199330875595271
20
5.8000001851029301
42
0.99999999999999989
10
-3.607433087559528
20
5.8000001851029301
10
-3.607433087559528
20
6.0330000000000013
10
-2.4004330875595268
20
6.0330000000000004
42
-0.41421356237309503
10
-2.3004330875595267
20
5.9330000000000007
10
-2.3004330875595267
20
5.6000000000000014
42
-0.41421356237309503
10
-2.4004330875595268
20
5.5000000000000009
10
-2.5004330875595264
20
5.5000000000000009
10
-2.500433087559526
20
5.2830000000000013
10
-3.5004330875595255
20
5.2830000000000013
10
-3.500433087559526
20
5.5330000000000013
10
-5.0004330876595269
20
5.5330000000000013
10
-5.0004330876595269
20
5.2830000000000013
10
-6.0004330876595269
20
5.2830000000000013
10
-6.000433087659526
20
5.5000000000000009
10
-7.5004330877595278
20
5.5000000000000009
10
-7.500433087759526
20
5.2830000000000013
10
-8.5004330877595251
20
5.2830000000000021
10
-8.5004330877595287
20
5.5000000000000009
10
-9.2834330875595263
20
5.5000000000000036
10
-9.4004331051123877
20
5.5000001579757809
42
-0.41421351096194414
10
-9.5004330875595233
20
5.6000001579757797
10
-9.5004330875595233
20
6.5000001755286423
10
-9.3066830875595237
20
6.5000001755286405
10
-9.3066830875595219
20
6.3000002872287091
42
0.99999999999999989
10
-8.9941830875595219
20
6.3000002872287073
10
-8.9941830875595219
20
6.5000001755286423
10
-8.800433087559524
20
6.5000001755286405
10
-8.800433087559524
20
6.133
42
0.41421356237309304
10
-8.7004330875595244
20
6.0330000000000004
0
LINE
5
154
100
AcDbEntity
8
0
100
AcDbLine
10
-9.2834330875595263
20
5.50000015797578
30
6.8842569440339427e-16
11
-8.5004330877595251
21
5.5000000000000018
31
-3.7153132713833982e-16
0
LINE
5
155
100
AcDbEntity
8
0
100
AcDbLine
10
-2.4004330875595268
20
6.0330000000000013
30
-1.6391087961985577e-16
11
-3.6074330875595275
21
6.0330000000000013
31
1.8576566356916988e-16
0
ENDSEC
0
SECTION
2
OBJECTS
0
DICTIONARY
5
C
100
AcDbDictionary
3
ACAD_GROUP
350
D
3
ACAD_MLINESTYLE
350
17
0
DICTIONARY
5
D
100
AcDbDictionary
0
DICTIONARY
5
1A
330
C
100
AcDbDictionary
0
DICTIONARY
5
17
100
AcDbDictionary
0
ENDSEC
0
EOF
