0
SECTION
2
HEADER
9
$INSUNITS
70
1
9
$ACADVER
1
AC1014
9
$HANDSEED
5
FFFF
0
ENDSEC
0
SECTION
2
TABLES
0
TABLE
2
VPORT
5
8
100
AcDbSymbolTable
0
ENDTAB
0
TABLE
2
LTYPE
5
5
100
AcDbSymbolTable
0
LTYPE
5
14
100
AcDbSymbolTableRecord
100
AcDbLinetypeTableRecord
2
BYBLOCK
70
0
0
LTYPE
5
15
100
AcDbSymbolTableRecord
100
AcDbLinetypeTableRecord
2
BYLAYER
70
0
0
ENDTAB
0
TABLE
2
LAYER
5
2
100
AcDbSymbolTable
70
2
0
LAYER
5
50
100
AcDbSymbolTableRecord
100
AcDbLayerTableRecord
2
0
70
0
6
CONTINUOUS
0
ENDTAB
0
TABLE
2
STYLE
5
3
100
AcDbSymbolTable
70
1
0
STYLE
5
11
100
AcDbSymbolTableRecord
100
AcDbTextStyleTableRecord
2
STANDARD
70
0
0
ENDTAB
0
TABLE
2
VIEW
5
6
100
AcDbSymbolTable
70
0
0
ENDTAB
0
TABLE
2
UCS
5
7
100
AcDbSymbolTable
70
0
0
ENDTAB
0
TABLE
2
APPID
5
9
100
AcDbSymbolTable
70
2
0
APPID
5
12
100
AcDbSymbolTableRecord
100
AcDbRegAppTableRecord
2
ACAD
70
0
0
ENDTAB
0
TABLE
2
DIMSTYLE
5
A
100
AcDbSymbolTable
70
1
0
ENDTAB
0
TABLE
2
BLOCK_RECORD
5
1
100
AcDbSymbolTable
70
1
0
BLOCK_RECORD
5
1F
100
AcDbSymbolTableRecord
100
AcDbBlockTableRecord
2
*MODEL_SPACE
0
BLOCK_RECORD
5
1B
100
AcDbSymbolTableRecord
100
AcDbBlockTableRecord
2
*PAPER_SPACE
0
ENDTAB
0
ENDSEC
0
SECTION
2
BLOCKS
0
BLOCK
5
20
100
AcDbEntity
100
AcDbBlockBegin
2
*MODEL_SPACE
0
ENDBLK
5
21
100
AcDbEntity
100
AcDbBlockEnd
0
BLOCK
5
1C
100
AcDbEntity
100
AcDbBlockBegin
2
*PAPER_SPACE
0
ENDBLK
5
1D
100
AcDbEntity
100
AcDbBlockEnd
0
ENDSEC
0
SECTION
2
ENTITIES
0
LINE
5
100
100
AcDbEntity
8
0
100
AcDbLine
10
-8.8504330875595265
20
5.8000001851029293
30
2.1854783949314103e-17
11
-8.8504330875595247
21
6.0329999999999995
31
-3.4967654318902565e-16
0
ARC
5
101
100
AcDbEntity
8
0
100
AcDbCircle
10
-8.7004330875595262
20
6.1329999999999965
30
3.6060393516368269e-16
40
0.099999999999997716
210
-7.1623936839791019e-39
220
-5.1207278722919246e-25
230
1
100
AcDbArc
50
180
51
270.00000000000102
0
LINE
5
102
100
AcDbEntity
8
0
100
AcDbLine
10
-8.800433087559524
20
6.1329999999999973
30
3.6060393516368269e-16
11
-8.800433087559524
21
6.5000001755286378
31
3.6060393516368269e-16
0
LINE
5
103
100
AcDbEntity
8
0
100
AcDbLine
10
-8.800433087559524
20
6.5000001755286378
30
3.6060393516368269e-16
11
-8.9941830875595219
21
6.5000001755286396
31
3.7153132713833977e-16
0
LINE
5
104
100
AcDbEntity
8
0
100
AcDbLine
10
-8.9941830875595219
20
6.5000001755286396
30
3.7153132713833977e-16
11
-8.9941830875595219
21
6.3000002872287064
31
3.7153132713833977e-16
0
ARC
5
105
100
AcDbEntity
8
0
100
AcDbCircle
10
-9.1504330875595237
20
6.3000002872287064
30
3.7153132713833977e-16
40
0.15625000000000056
210
-5.5511151231257827e-17
220
0
230
1
100
AcDbArc
50
-180
51
0
0
LINE
5
106
100
AcDbEntity
8
0
100
AcDbLine
10
-9.3066830875595237
20
6.3000002872287064
30
3.6285770975845568e-16
11
-9.3066830875595237
21
6.5000001755286396
31
3.7153132713833977e-16
0
LINE
5
107
100
AcDbEntity
8
0
100
AcDbLine
10
-9.3066830875595237
20
6.5000001755286396
30
3.7153132713833977e-16
11
-9.5004330875595233
21
6.5000001755286396
31
4.3709567898628207e-17
0
LINE
5
108
100
AcDbEntity
8
0
100
AcDbLine
10
-9.5004330875595233
20
6.5000001755286396
30
4.3709567898628207e-17
11
-9.5004330875595233
21
5.6000001579757779
31
4.3709567898628207e-17
0
ARC
5
109
100
AcDbEntity
8
0
100
AcDbCircle
10
-9.4004330875595219
20
5.6000001579757779
30
2.1854783949314103e-17
40
0.10000000000000052
210
2.185478394931399e-16
220
2.4651903288154944e-32
230
1
100
AcDbArc
50
180
51
269.99998994294867
0
LINE
5
110
100
AcDbEntity
8
0
100
AcDbLine
10
-9.4004331051123877
20
5.5000001579757791
30
2.1854783949314109e-17
11
-9.2834330875595246
21
5.5000001579757765
31
3.3874915121436857e-16
0
LINE
5
111
100
AcDbEntity
8
0
100
AcDbLine
10
-8.5004330877595251
20
5.4999999999999991
30
6.7749830242873714e-16
11
-8.5004330877595251
21
5.2829999999999986
31
-3.6060393516368269e-16
0
LINE
5
112
100
AcDbEntity
8
0
100
AcDbLine
10
-8.5004330877595251
20
5.2829999999999986
30
-3.6060393516368269e-16
11
-7.5004330877595278
21
5.2829999999999986
31
-4.4802307096093915e-16
0
LINE
5
113
100
AcDbEntity
8
0
100
AcDbLine
10
-7.5004330877595278
20
5.2829999999999986
30
-4.4802307096093915e-16
11
-7.5004330877595278
21
5.4999999999999982
31
0
0
LINE
5
114
100
AcDbEntity
8
0
100
AcDbLine
10
-7.5004330877595278
20
5.4999999999999982
30
0
11
-6.000433087659526
21
5.4999999999999982
31
1.0927391974657052e-16
0
LINE
5
115
100
AcDbEntity
8
0
100
AcDbLine
10
-6.000433087659526
20
5.4999999999999982
30
1.0927391974657052e-16
11
-6.000433087659526
21
5.2829999999999986
31
-1.0927391974657052e-17
0
LINE
5
116
100
AcDbEntity
8
0
100
AcDbLine
10
-6.000433087659526
20
5.2829999999999986
30
-1.0927391974657052e-17
11
-5.0004330876595251
21
5.2829999999999995
31
-9.8346527771913422e-17
0
LINE
5
117
100
AcDbEntity
8
0
100
AcDbLine
10
-5.0004330876595251
20
5.2829999999999995
30
-9.8346527771913422e-17
11
-5.0004330876595251
21
5.5329999999999995
31
3.3874915121436862e-16
0
LINE
5
118
100
AcDbEntity
8
0
100
AcDbLine
10
-5.0004330876595251
20
5.5329999999999995
30
3.3874915121436862e-16
11
-3.5004330875595255
21
5.5329999999999995
31
3.3874915121436862e-16
0
LINE
5
119
100
AcDbEntity
8
0
100
AcDbLine
10
-3.5004330875595255
20
5.5329999999999995
30
3.3874915121436862e-16
11
-3.500433087559526
21
5.2829999999999995
31
-3.6060393516368269e-16
0
LINE
5
120
100
AcDbEntity
8
0
100
AcDbLine
10
-3.500433087559526
20
5.2829999999999995
30
-3.6060393516368269e-16
11
-2.500433087559526
21
5.2829999999999995
31
-3.6060393516368269e-16
0
LINE
5
121
100
AcDbEntity
8
0
100
AcDbLine
10
-2.500433087559526
20
5.2829999999999995
30
-3.6060393516368269e-16
11
-2.500433087559526
21
5.5
31
0
0
LINE
5
122
100
AcDbEntity
8
0
100
AcDbLine
10
-2.500433087559526
20
5.5
30
0
11
-2.4004330875595259
21
5.5
31
1.0927391974657052e-17
0
ARC
5
123
100
AcDbEntity
8
0
100
AcDbCircle
10
-2.4004330875595254
20
5.5999999999999988
30
-1.5298348764519874e-16
40
0.099999999999999117
210
5.5511151231263694e-17
220
1.6391087961985721e-15
230
1
100
AcDbArc
50
-90.000000000000256
51
0
0
LINE
5
124
100
AcDbEntity
8
0
100
AcDbLine
10
-2.3004330875595267
20
5.5999999999999996
30
-1.585346027683245e-16
11
-2.3004330875595254
21
5.9329999999999998
31
3.4967654318902565e-16
0
ARC
5
125
100
AcDbEntity
8
0
100
AcDbCircle
10
-2.4004330875595263
20
5.9329999999999998
30
1.092739197465705e-17
40
0.10000000000000087
210
-3.3874915121436596e-15
220
-4.552669395158349e-16
230
1
100
AcDbArc
50
0
51
90.000000000000256
0
LINE
5
126
100
AcDbEntity
8
0
100
AcDbLine
10
-2.9834330875595301
20
6.0329999999999995
30
1.0927391974657052e-17
11
-2.9834330875595287
21
5.8000001851029301
31
2.1854783949314103e-17
0
ARC
5
127
100
AcDbEntity
8
0
100
AcDbCircle
10
-3.139683087559527
20
5.8000001851029301
30
-3.2782175923971154e-16
40
0.15624999999999775
210
5.5511151231257827e-17
220
5.8691368731182354e-32
230
1
100
AcDbArc
50
-180
51
0
0
LINE
5
128
100
AcDbEntity
8
0
100
AcDbLine
10
-3.2959330875595247
20
5.8000001851029301
30
-3.1914814185982765e-16
11
-3.2959330875595247
21
6.0329999999999995
31
-3.4967654318902565e-16
0
LINE
5
129
100
AcDbEntity
8
0
100
AcDbLine
10
-3.2959330875595247
20
6.0329999999999995
30
-3.4967654318902565e-16
11
-3.7769330875595299
21
6.0329999999999995
31
-3.3874915121436862e-16
0
LINE
5
130
100
AcDbEntity
8
0
100
AcDbLine
10
-3.7769330875595299
20
6.0329999999999995
30
-3.3874915121436862e-16
11
-3.7769330875595286
21
5.8000001851029301
31
2.1854783949314103e-17
0
ARC
5
131
100
AcDbEntity
8
0
100
AcDbCircle
10
-3.9331830875595259
20
5.8000001851029301
30
-6.7749830242873724e-16
40
0.15624999999999775
210
5.5511151231257827e-17
220
0
230
1
100
AcDbArc
50
-180
51
0
0
LINE
5
132
100
AcDbEntity
8
0
100
AcDbLine
10
-4.0894330875595237
20
5.8000001851029301
30
-6.688246850488533e-16
11
-4.0894330875595237
21
6.0329999999999995
31
1.2131842169368414e-33
0
LINE
5
133
100
AcDbEntity
8
0
100
AcDbLine
10
-4.0894330875595237
20
6.0329999999999995
30
1.2131842169368414e-33
11
-4.5704330875595289
21
6.0329999999999995
31
-3.3874915121436862e-16
0
LINE
5
134
100
AcDbEntity
8
0
100
AcDbLine
10
-4.5704330875595289
20
6.0329999999999995
30
-3.3874915121436862e-16
11
-4.5704330875595289
21
5.8000001851029301
31
-3.2782175923971154e-16
0
ARC
5
135
100
AcDbEntity
8
0
100
AcDbCircle
10
-4.7266830875595263
20
5.8000001851029301
30
2.1854783949314103e-17
40
0.15624999999999775
210
5.5511151231257827e-17
220
0
230
1
100
AcDbArc
50
-180
51
0
0
LINE
5
136
100
AcDbEntity
8
0
100
AcDbLine
10
-4.8829330875595236
20
5.8000001851029301
30
3.0528401329198015e-17
11
-4.8829330875595236
21
6.0329999999999995
31
1.2131842169368414e-33
0
LINE
5
137
100
AcDbEntity
8
0
100
AcDbLine
10
-4.8829330875595236
20
6.0329999999999995
30
1.2131842169368414e-33
11
-5.3639330875595288
21
6.0329999999999995
31
1.092739197465705e-17
0
LINE
5
138
100
AcDbEntity
8
0
100
AcDbLine
10
-5.3639330875595288
20
6.0329999999999995
30
1.092739197465705e-17
11
-5.3639330875595279
21
5.8000001851029301
31
-3.2782175923971154e-16
0
ARC
5
139
100
AcDbEntity
8
0
100
AcDbCircle
10
-5.5201830875595261
20
5.8000001851029301
30
3.7153132713833977e-16
40
0.15624999999999775
210
5.5511151231257827e-17
220
0
230
1
100
AcDbArc
50
-180
51
0
0
LINE
5
140
100
AcDbEntity
8
0
100
AcDbLine
10
-5.6764330875595235
20
5.8000001851029301
30
3.8020494451822366e-16
11
-5.6764330875595235
21
6.0329999999999995
31
1.2131842169368414e-33
0
LINE
5
141
100
AcDbEntity
8
0
100
AcDbLine
10
-5.6764330875595235
20
6.0329999999999995
30
1.2131842169368414e-33
11
-6.1574330875595296
21
6.0330000000000004
31
5.4636959873285277e-17
0
LINE
5
142
100
AcDbEntity
8
0
100
AcDbLine
10
-6.1574330875595296
20
6.0330000000000004
30
5.4636959873285277e-17
11
-6.1574330875595278
21
5.8000001851029301
31
-3.2782175923971154e-16
0
ARC
5
143
100
AcDbEntity
8
0
100
AcDbCircle
10
-6.313683087559526
20
5.8000001851029301
30
3.7153132713833977e-16
40
0.15624999999999775
210
5.5511151231257827e-17
220
0
230
1
100
AcDbArc
50
-180
51
0
0
LINE
5
144
100
AcDbEntity
8
0
100
AcDbLine
10
-6.4699330875595233
20
5.8000001851029301
30
3.8020494451822366e-16
11
-6.4699330875595233
21
6.0330000000000004
31
-3.4967654318902565e-16
0
LINE
5
145
100
AcDbEntity
8
0
100
AcDbLine
10
-6.4699330875595233
20
6.0330000000000004
30
-3.4967654318902565e-16
11
-6.9509330875595294
21
6.0330000000000004
31
-3.3874915121436862e-16
0
LINE
5
146
100
AcDbEntity
8
0
100
AcDbLine
10
-6.9509330875595294
20
6.0330000000000004
30
-3.3874915121436862e-16
11
-6.9509330875595277
21
5.8000001851029301
31
3.7153132713833977e-16
0
ARC
5
147
100
AcDbEntity
8
0
100
AcDbCircle
10
-7.1071830875595259
20
5.8000001851029301
30
2.1854783949314103e-17
40
0.15624999999999775
210
5.5511151231257827e-17
220
0
230
1
100
AcDbArc
50
-180
51
0
0
LINE
5
148
100
AcDbEntity
8
0
100
AcDbLine
10
-7.2634330875595232
20
5.8000001851029301
30
3.0528401329198015e-17
11
-7.263433087559525
21
6.0330000000000004
31
1.2131842169368414e-33
0
LINE
5
149
100
AcDbEntity
8
0
100
AcDbLine
10
-7.263433087559525
20
6.0330000000000004
30
1.2131842169368414e-33
11
-7.7444330875595302
21
6.0330000000000004
31
5.4636959873285258e-17
0
LINE
5
150
100
AcDbEntity
8
0
100
AcDbLine
10
-7.7444330875595302
20
6.0330000000000004
30
5.4636959873285258e-17
11
-7.7444330875595293
21
5.8000001851029293
31
-6.7749830242873724e-16
0
ARC
5
151
100
AcDbEntity
8
0
100
AcDbCircle
10
-7.9006830875595266
20
5.8000001851029293
30
2.1854783949314103e-17
40
0.15624999999999775
210
5.5511151231257827e-17
220
0
230
1
100
AcDbArc
50
-180
51
0
0
LINE
5
152
100
AcDbEntity
8
0
100
AcDbLine
10
-8.0569330875595249
20
5.8000001851029293
30
3.0528401329198015e-17
11
-8.0569330875595266
21
6.0329999999999995
31
-3.4967654318902565e-16
0
LINE
5
153
100
AcDbEntity
8
0
100
AcDbLine
10
-8.0569330875595266
20
6.0329999999999995
30
-3.4967654318902565e-16
11
-8.5379330875595301
21
6.0329999999999995
31
-3.3874915121436862e-16
0
LINE
5
154
100
AcDbEntity
8
0
100
AcDbLine
10
-8.5379330875595283
20
6.0329999999999995
30
-3.3874915121436862e-16
11
-8.5379330875595283
21
5.8000001851029293
31
2.1854783949314103e-17
0
ARC
5
155
100
AcDbEntity
8
0
100
AcDbCircle
10
-8.6941830875595247
20
5.8000001851029293
30
-6.7749830242873724e-16
40
0.15625000000000056
210
4.4758597528195129e-15
220
0
230
1
100
AcDbArc
50
-180
51
0
0
LWPOLYLINE
5
156
100
AcDbEntity
8
0
100
AcDbPolyline
90
59
70
1
43
0.0
10
-8.5379330875595283
20
5.8000001851029293
10
-8.5379330875595283
20
6.0329999999999995
10
-8.0569330875595249
20
6.0329999999999995
10
-8.0569330875595284
20
5.8000001851029293
42
0.99999999999999989
10
-7.7444330875595275
20
5.8000001851029293
10
-7.7444330875595293
20
6.0329999999999995
10
-7.263433087559525
20
6.0329999999999995
10
-7.2634330875595277
20
5.8000001851029293
42
0.99999999999999989
10
-6.9509330875595277
20
5.8000001851029301
10
-6.9509330875595294
20
6.0330000000000004
10
-6.4699330875595233
20
6.0329999999999995
10
-6.4699330875595278
20
5.8000001851029301
42
0.99999999999999989
10
-6.1574330875595269
20
5.8000001851029301
10
-6.1574330875595296
20
6.0330000000000004
10
-5.6764330875595252
20
6.0329999999999995
10
-5.6764330875595261
20
5.8000001851029301
42
0.99999999999999989
10
-5.3639330875595279
20
5.8000001851029301
10
-5.3639330875595288
20
6.0329999999999995
10
-4.8829330875595245
20
6.0329999999999995
10
-4.8829330875595263
20
5.8000001851029301
42
0.99999999999999989
10
-4.5704330875595272
20
5.8000001851029301
10
-4.5704330875595289
20
6.0329999999999995
10
-4.0894330875595237
20
6.0329999999999995
10
-4.0894330875595264
20
5.8000001851029301
42
0.99999999999999989
10
-3.7769330875595277
20
5.8000001851029301
10
-3.7769330875595286
20
6.0329999999999995
10
-3.2959330875595239
20
6.0329999999999995
10
-3.295933087559527
20
5.8000001851029301
42
0.99999999999999989
10
-2.9834330875595292
20
5.8000001851029301
10
-2.9834330875595296
20
6.0329999999999995
10
-2.4004330875595268
20
6.0329999999999995
42
-0.41421356237309709
10
-2.3004330875595262
20
5.9329999999999998
10
-2.3004330875595267
20
5.5999999999999996
42
-0.41421356237309503
10
-2.4004330875595263
20
5.5
10
-2.5004330875595264
20
5.5
10
-2.5004330875595264
20
5.2829999999999995
10
-3.5004330875595255
20
5.2829999999999995
10
-3.500433087559526
20
5.5329999999999995
10
-5.000433087659526
20
5.5329999999999995
10
-5.000433087659526
20
5.2829999999999995
10
-6.000433087659526
20
5.2829999999999995
10
-6.000433087659526
20
5.4999999999999991
10
-7.500433087759526
20
5.4999999999999991
10
-7.5004330877595278
20
5.2829999999999986
10
-8.5004330877595269
20
5.2829999999999986
10
-8.5004330877595251
20
5.4999999999999982
10
-9.2834330875595263
20
5.5000000000000009
10
-9.4004331051123877
20
5.5000001579757791
42
-0.41421351096194414
10
-9.5004330875595233
20
5.600000157975777
10
-9.5004330875595251
20
6.5000001755286396
10
-9.3066830875595254
20
6.5000001755286396
10
-9.3066830875595237
20
6.3000002872287064
42
0.99999999999999989
10
-8.9941830875595219
20
6.3000002872287064
10
-8.9941830875595219
20
6.5000001755286378
10
-8.800433087559524
20
6.5000001755286396
10
-8.800433087559524
20
6.1329999999999982
42
0.41421356237309709
10
-8.7004330875595244
20
6.0329999999999986
10
-8.8504330875595247
20
6.0329999999999995
10
-8.850433087559523
20
5.8000001851029293
42
0.99999999999999989
0
LINE
5
157
100
AcDbEntity
8
0
100
AcDbLine
10
-9.2834330875595246
20
5.5000001579757765
30
3.3874915121436857e-16
11
-8.5004330877595251
21
5.4999999999999991
31
6.7749830242873714e-16
0
LINE
5
158
100
AcDbEntity
8
0
100
AcDbLine
10
-2.4004330875595268
20
6.0330000000000004
30
1.0927391974657052e-17
11
-2.9834330875595301
21
6.0329999999999995
31
1.0927391974657052e-17
0
LINE
5
159
100
AcDbEntity
8
0
100
AcDbLine
10
-8.8504330875595247
20
6.0329999999999995
30
-3.4967654318902565e-16
11
-8.7004330875595244
21
6.0329999999999986
31
3.6060393516368269e-16
0
ENDSEC
0
SECTION
2
OBJECTS
0
DICTIONARY
5
C
100
AcDbDictionary
3
ACAD_GROUP
350
D
3
ACAD_MLINESTYLE
350
17
0
DICTIONARY
5
D
100
AcDbDictionary
0
DICTIONARY
5
1A
330
C
100
AcDbDictionary
0
DICTIONARY
5
17
100
AcDbDictionary
0
ENDSEC
0
EOF
