0
SECTION
2
HEADER
9
$INSUNITS
70
1
9
$ACADVER
1
AC1014
9
$HANDSEED
5
FFFF
0
ENDSEC
0
SECTION
2
TABLES
0
TABLE
2
VPORT
5
8
100
AcDbSymbolTable
0
ENDTAB
0
TABLE
2
LTYPE
5
5
100
AcDbSymbolTable
0
LTYPE
5
14
100
AcDbSymbolTableRecord
100
AcDbLinetypeTableRecord
2
BYBLOCK
70
0
0
LTYPE
5
15
100
AcDbSymbolTableRecord
100
AcDbLinetypeTableRecord
2
BYLAYER
70
0
0
ENDTAB
0
TABLE
2
LAYER
5
2
100
AcDbSymbolTable
70
2
0
LAYER
5
50
100
AcDbSymbolTableRecord
100
AcDbLayerTableRecord
2
0
70
0
6
CONTINUOUS
0
ENDTAB
0
TABLE
2
STYLE
5
3
100
AcDbSymbolTable
70
1
0
STYLE
5
11
100
AcDbSymbolTableRecord
100
AcDbTextStyleTableRecord
2
STANDARD
70
0
0
ENDTAB
0
TABLE
2
VIEW
5
6
100
AcDbSymbolTable
70
0
0
ENDTAB
0
TABLE
2
UCS
5
7
100
AcDbSymbolTable
70
0
0
ENDTAB
0
TABLE
2
APPID
5
9
100
AcDbSymbolTable
70
2
0
APPID
5
12
100
AcDbSymbolTableRecord
100
AcDbRegAppTableRecord
2
ACAD
70
0
0
ENDTAB
0
TABLE
2
DIMSTYLE
5
A
100
AcDbSymbolTable
70
1
0
ENDTAB
0
TABLE
2
BLOCK_RECORD
5
1
100
AcDbSymbolTable
70
1
0
BLOCK_RECORD
5
1F
100
AcDbSymbolTableRecord
100
AcDbBlockTableRecord
2
*MODEL_SPACE
0
BLOCK_RECORD
5
1B
100
AcDbSymbolTableRecord
100
AcDbBlockTableRecord
2
*PAPER_SPACE
0
ENDTAB
0
ENDSEC
0
SECTION
2
BLOCKS
0
BLOCK
5
20
100
AcDbEntity
100
AcDbBlockBegin
2
*MODEL_SPACE
0
ENDBLK
5
21
100
AcDbEntity
100
AcDbBlockEnd
0
BLOCK
5
1C
100
AcDbEntity
100
AcDbBlockBegin
2
*PAPER_SPACE
0
ENDBLK
5
1D
100
AcDbEntity
100
AcDbBlockEnd
0
ENDSEC
0
SECTION
2
ENTITIES
0
LINE
5
100
100
AcDbEntity
8
0
100
AcDbLine
10
-8.5359330875595241
20
5.8000000000000016
30
0
11
-8.5359330875595258
21
6.0330000000000004
31
1.0927391974657025e-17
0
ARC
5
101
100
AcDbEntity
8
0
100
AcDbCircle
10
-8.7004330875595226
20
6.1329999999999991
30
3.2782175923971192e-17
40
0.099999999999999117
210
5.5511151231257439e-17
220
-1.5415163361175767e-24
230
1
100
AcDbArc
50
180
51
270
0
LINE
5
102
100
AcDbEntity
8
0
100
AcDbLine
10
-8.8004330875595222
20
6.1329999999999991
30
3.8333291047096887e-17
11
-8.8004330875595222
21
6.5000001755286405
31
3.2782175923971155e-17
0
LINE
5
103
100
AcDbEntity
8
0
100
AcDbLine
10
-8.8004330875595222
20
6.5000001755286405
30
3.2782175923971155e-17
11
-8.9941830875595219
21
6.5000001755286396
31
4.3709567898628207e-17
0
LINE
5
104
100
AcDbEntity
8
0
100
AcDbLine
10
-8.9941830875595219
20
6.5000001755286396
30
4.3709567898628207e-17
11
-8.9941830875595219
21
6.3000002872287064
31
5.4636959873285258e-17
0
ARC
5
105
100
AcDbEntity
8
0
100
AcDbCircle
10
-9.1504330875595201
20
6.3000002872287064
30
7.4306265427667954e-16
40
0.15625000000000056
210
1.1102230246251565e-16
220
0
230
1
100
AcDbArc
50
-180
51
0
0
LINE
5
106
100
AcDbEntity
8
0
100
AcDbLine
10
-9.3066830875595201
20
6.3000002872287064
30
7.6040988903644761e-16
11
-9.3066830875595219
21
6.5000001755286396
31
1.4424157406547307e-15
0
LINE
5
107
100
AcDbEntity
8
0
100
AcDbLine
10
-9.3066830875595219
20
6.5000001755286396
30
1.4424157406547307e-15
11
-9.5004330875595215
21
6.5000001755286396
31
7.4306265427667954e-16
0
LINE
5
108
100
AcDbEntity
8
0
100
AcDbLine
10
-9.5004330875595215
20
6.5000001755286396
30
7.4306265427667954e-16
11
-9.5004330875595215
21
5.600000157975777
31
4.3709567898628207e-17
0
ARC
5
109
100
AcDbEntity
8
0
100
AcDbCircle
10
-9.4004330875595219
20
5.6000001579757788
30
6.9935308637805131e-16
40
0.099999999999999117
210
-6.5564351847942885e-15
220
-9.2402371429009944e-29
230
1
100
AcDbArc
50
180
51
269.99998994294867
0
LINE
5
110
100
AcDbEntity
8
0
100
AcDbLine
10
-9.4004331051123877
20
5.50000015797578
30
6.99353087352431e-16
11
-9.2834330875595246
21
5.5000001579757782
31
6.9935308637805131e-16
0
LINE
5
111
100
AcDbEntity
8
0
100
AcDbLine
10
-8.5004330877595269
20
5.5000000000000009
30
-2.1854783949314186e-17
11
-8.5004330877595251
21
5.2830000000000004
31
0
0
LINE
5
112
100
AcDbEntity
8
0
100
AcDbLine
10
-8.5004330877595251
20
5.2830000000000004
30
0
11
-7.500433087759526
21
5.2829999999999995
31
-1.0927391974657095e-17
0
LINE
5
113
100
AcDbEntity
8
0
100
AcDbLine
10
-7.500433087759526
20
5.2829999999999995
30
-1.0927391974657095e-17
11
-7.500433087759526
21
5.5
31
-2.1854783949314103e-17
0
LINE
5
114
100
AcDbEntity
8
0
100
AcDbLine
10
-7.500433087759526
20
5.5
30
-2.1854783949314103e-17
11
-6.0004330876595251
21
5.5
31
-2.1854783949314109e-17
0
LINE
5
115
100
AcDbEntity
8
0
100
AcDbLine
10
-6.0004330876595251
20
5.5
30
-2.1854783949314109e-17
11
-6.0004330876595251
21
5.2829999999999986
31
0
0
LINE
5
116
100
AcDbEntity
8
0
100
AcDbLine
10
-6.0004330876595251
20
5.2829999999999986
30
0
11
-5.000433087659526
21
5.2829999999999995
31
-1.0927391974657015e-17
0
LINE
5
117
100
AcDbEntity
8
0
100
AcDbLine
10
-5.000433087659526
20
5.2829999999999995
30
-1.0927391974657015e-17
11
-5.0004330876595251
21
5.5329999999999995
31
3.3874915121436862e-16
0
LINE
5
118
100
AcDbEntity
8
0
100
AcDbLine
10
-5.0004330876595251
20
5.5329999999999995
30
3.3874915121436862e-16
11
-3.5004330875595255
21
5.5329999999999995
31
2.6225740739176924e-16
0
LINE
5
119
100
AcDbEntity
8
0
100
AcDbLine
10
-3.5004330875595255
20
5.5329999999999995
30
2.6225740739176924e-16
11
-3.5004330875595255
21
5.2829999999999995
31
1.7483827159451283e-16
0
LINE
5
120
100
AcDbEntity
8
0
100
AcDbLine
10
-3.5004330875595255
20
5.2829999999999995
30
1.7483827159451283e-16
11
-2.500433087559526
21
5.2829999999999995
31
2.5133001541711221e-16
0
LINE
5
121
100
AcDbEntity
8
0
100
AcDbLine
10
-2.500433087559526
20
5.2829999999999995
30
2.5133001541711221e-16
11
-2.5004330875595255
21
5.5
31
1.5298348764519871e-16
0
LINE
5
122
100
AcDbEntity
8
0
100
AcDbLine
10
-2.5004330875595255
20
5.5
30
1.5298348764519871e-16
11
-2.4004330875595254
21
5.5
31
-2.1854783949314103e-17
0
ARC
5
123
100
AcDbEntity
8
0
100
AcDbCircle
10
-2.4004330875595254
20
5.5999999999999988
30
1.748382715945128e-16
40
0.099999999999999117
210
5.5511151231257827e-17
220
-1.9669305554382865e-15
230
1
100
AcDbArc
50
-90
51
0
0
LINE
5
124
100
AcDbEntity
8
0
100
AcDbLine
10
-2.3004330875595267
20
5.5999999999999996
30
1.6928715647138706e-16
11
-2.3004330875595258
21
5.9329999999999998
31
1.7483827159451283e-16
0
ARC
5
125
100
AcDbEntity
8
0
100
AcDbCircle
10
-2.4004330875595254
20
5.9329999999999998
30
2.1854783949314011e-17
40
0.099999999999999464
210
-1.5298348764519963e-15
220
1.1395633969589601e-29
230
1
100
AcDbArc
50
0
51
90.000000000000256
0
LINE
5
126
100
AcDbEntity
8
0
100
AcDbLine
10
-8.5359330875595241
20
6.0330000000000004
30
3.2782175923971155e-17
11
-8.7004330875595244
21
6.0330000000000004
31
4.3709567898628207e-17
0
LINE
5
127
100
AcDbEntity
8
0
100
AcDbLine
10
-3.4624330875595275
20
6.0330000000000004
30
2.0762044751848398e-16
11
-3.4624330875595262
21
5.7999999999999998
31
-1.5298348764519876e-16
0
ARC
5
128
100
AcDbEntity
8
0
100
AcDbCircle
10
-3.6186830875595279
20
5.7999999999999989
30
1.7483827159451288e-16
40
0.15624999999999983
210
5.5511151231257328e-17
220
-1.1738273746236007e-31
230
1
100
AcDbArc
50
-180
51
0
0
LINE
5
129
100
AcDbEntity
8
0
100
AcDbLine
10
-3.7749330875595279
20
5.7999999999999998
30
1.8351188897439681e-16
11
-3.7749330875595279
21
6.0330000000000004
31
1.8576566356916983e-16
0
LINE
5
130
100
AcDbEntity
8
0
100
AcDbLine
10
-3.7749330875595279
20
6.0330000000000004
30
1.8576566356916983e-16
11
-4.2559330875595274
21
6.0330000000000004
31
3.2782175923971155e-17
0
LINE
5
131
100
AcDbEntity
8
0
100
AcDbLine
10
-4.2559330875595274
20
6.0330000000000004
30
3.2782175923971155e-17
11
-4.2559330875595265
21
5.7999999999999998
31
-3.2782175923971159e-16
0
ARC
5
132
100
AcDbEntity
8
0
100
AcDbCircle
10
-4.4121830875595283
20
5.7999999999999989
30
-6.9935308637805121e-16
40
0.15624999999999983
210
5.5511151231257081e-17
220
2.4454736971325572e-31
230
1
100
AcDbArc
50
-180
51
0
0
LINE
5
133
100
AcDbEntity
8
0
100
AcDbLine
10
-4.5684330875595274
20
5.7999999999999998
30
-6.9067946899816727e-16
11
-4.5684330875595274
21
6.0330000000000004
31
3.6060393516368264e-16
0
LINE
5
134
100
AcDbEntity
8
0
100
AcDbLine
10
-4.5684330875595274
20
6.0330000000000004
30
3.6060393516368264e-16
11
-5.0494330875595281
21
6.0330000000000004
31
3.824587191129968e-16
0
LINE
5
135
100
AcDbEntity
8
0
100
AcDbLine
10
-5.0494330875595281
20
6.0330000000000004
30
3.824587191129968e-16
11
-5.0494330875595264
21
5.7999999999999998
31
-3.2782175923971154e-16
0
ARC
5
136
100
AcDbEntity
8
0
100
AcDbCircle
10
-5.2056830875595281
20
5.7999999999999989
30
-3.496765431890256e-16
40
0.15624999999999983
210
5.5511151231257328e-17
220
1.0947644252537633e-45
230
1
100
AcDbArc
50
-180
51
0
0
LINE
5
137
100
AcDbEntity
8
0
100
AcDbLine
10
-5.3619330875595272
20
5.7999999999999998
30
-3.4100292580914167e-16
11
-5.3619330875595272
21
6.0330000000000004
31
3.6060393516368269e-16
0
LINE
5
138
100
AcDbEntity
8
0
100
AcDbLine
10
-5.3619330875595272
20
6.0330000000000004
30
3.6060393516368269e-16
11
-5.8429330875595262
21
6.0330000000000004
31
3.824587191129968e-16
0
LINE
5
139
100
AcDbEntity
8
0
100
AcDbLine
10
-5.8429330875595262
20
6.0330000000000004
30
3.824587191129968e-16
11
-5.8429330875595262
21
5.8000000000000007
31
-3.2782175923971159e-16
0
ARC
5
140
100
AcDbEntity
8
0
100
AcDbCircle
10
-5.999183087559528
20
5.8000000000000007
30
-3.496765431890256e-16
40
0.15624999999999983
210
5.5511151231257328e-17
220
0
230
1
100
AcDbArc
50
-180
51
0
0
LINE
5
141
100
AcDbEntity
8
0
100
AcDbLine
10
-6.1554330875595271
20
5.8000000000000007
30
-3.4100292580914167e-16
11
-6.1554330875595271
21
6.0330000000000004
31
3.6060393516368264e-16
0
LINE
5
142
100
AcDbEntity
8
0
100
AcDbLine
10
-6.1554330875595271
20
6.0330000000000004
30
3.6060393516368264e-16
11
-6.636433087559527
21
6.0330000000000004
31
3.824587191129968e-16
0
LINE
5
143
100
AcDbEntity
8
0
100
AcDbLine
10
-6.636433087559527
20
6.0330000000000004
30
3.824587191129968e-16
11
-6.636433087559527
21
5.8000000000000007
31
7.2120787032736537e-16
0
ARC
5
144
100
AcDbEntity
8
0
100
AcDbCircle
10
-6.7926830875595279
20
5.8000000000000007
30
-6.0659210846842069e-34
40
0.15625000000000056
210
5.5511151231257346e-17
220
-6.8473263519710379e-32
230
1
100
AcDbArc
50
-180
51
0
0
LINE
5
145
100
AcDbEntity
8
0
100
AcDbLine
10
-6.9489330875595279
20
5.8000000000000007
30
8.6736173798839908e-18
11
-6.948933087559527
21
6.0330000000000004
31
1.0927391974657082e-17
0
LINE
5
146
100
AcDbEntity
8
0
100
AcDbLine
10
-6.948933087559527
20
6.0330000000000004
30
1.0927391974657082e-17
11
-7.4299330875595269
21
6.0330000000000004
31
3.2782175923971155e-17
0
LINE
5
147
100
AcDbEntity
8
0
100
AcDbLine
10
-7.4299330875595269
20
6.0330000000000004
30
3.2782175923971155e-17
11
-7.4299330875595251
21
5.8000000000000016
31
3.7153132713833977e-16
0
ARC
5
148
100
AcDbEntity
8
0
100
AcDbCircle
10
-7.586183087559526
20
5.8000000000000007
30
6.993530863780515e-16
40
0.15624999999999914
210
5.5511151231257334e-17
220
-2.445473697132502e-31
230
1
100
AcDbArc
50
-180
51
0
0
LINE
5
149
100
AcDbEntity
8
0
100
AcDbLine
10
-7.7424330875595251
20
5.8000000000000016
30
7.0802670375793534e-16
11
-7.7424330875595269
21
6.0330000000000004
31
7.1028047835270834e-16
0
LINE
5
150
100
AcDbEntity
8
0
100
AcDbLine
10
-7.7424330875595269
20
6.0330000000000004
30
7.1028047835270834e-16
11
-8.2234330875595258
21
6.0330000000000004
31
7.321352623020225e-16
0
LINE
5
151
100
AcDbEntity
8
0
100
AcDbLine
10
-8.2234330875595258
20
6.0330000000000004
30
7.321352623020225e-16
11
-8.2234330875595258
21
5.8000000000000016
31
7.2120787032736537e-16
0
ARC
5
152
100
AcDbEntity
8
0
100
AcDbCircle
10
-8.3796830875595258
20
5.8000000000000007
30
6.993530863780515e-16
40
0.15624999999999914
210
-4.4758597528195539e-15
220
2.0037233284825329e-29
230
1
100
AcDbArc
50
-180
51
0
0
LWPOLYLINE
5
153
100
AcDbEntity
8
0
100
AcDbPolyline
90
55
70
1
43
0.0
10
-8.5359330875595241
20
6.0330000000000004
10
-8.5359330875595241
20
5.8000000000000016
42
0.99999999999999989
10
-8.2234330875595258
20
5.8000000000000016
10
-8.2234330875595258
20
6.0330000000000004
10
-7.7424330875595277
20
6.0329999999999995
10
-7.7424330875595277
20
5.8000000000000016
42
0.99999999999999989
10
-7.4299330875595269
20
5.8000000000000016
10
-7.4299330875595269
20
6.0330000000000004
10
-6.9489330875595279
20
6.0329999999999995
10
-6.948933087559527
20
5.8000000000000007
42
0.99999999999999989
10
-6.636433087559527
20
5.8000000000000007
10
-6.636433087559527
20
6.0330000000000004
10
-6.1554330875595271
20
6.0329999999999995
10
-6.1554330875595271
20
5.8000000000000007
42
0.99999999999999989
10
-5.842933087559528
20
5.8000000000000007
10
-5.8429330875595262
20
6.0330000000000004
10
-5.3619330875595272
20
6.0329999999999995
10
-5.3619330875595272
20
5.7999999999999998
42
0.99999999999999989
10
-5.049433087559529
20
5.7999999999999998
10
-5.0494330875595281
20
6.0330000000000004
10
-4.5684330875595283
20
6.0329999999999995
10
-4.5684330875595283
20
5.7999999999999998
42
0.99999999999999989
10
-4.2559330875595283
20
5.7999999999999998
10
-4.2559330875595283
20
6.0330000000000004
10
-3.7749330875595284
20
6.0329999999999995
10
-3.7749330875595279
20
5.7999999999999998
42
0.99999999999999989
10
-3.4624330875595275
20
5.7999999999999998
10
-3.4624330875595262
20
6.0330000000000004
10
-2.4004330875595263
20
6.0329999999999995
42
-0.41421356237309609
10
-2.3004330875595262
20
5.9329999999999998
10
-2.3004330875595262
20
5.5999999999999996
42
-0.41421356237309503
10
-2.4004330875595259
20
5.5
10
-2.500433087559526
20
5.5
10
-2.500433087559526
20
5.2829999999999995
10
-3.5004330875595255
20
5.2829999999999995
10
-3.5004330875595255
20
5.5329999999999995
10
-5.0004330876595251
20
5.5329999999999995
10
-5.0004330876595251
20
5.2829999999999995
10
-6.0004330876595251
20
5.2829999999999995
10
-6.000433087659526
20
5.4999999999999991
10
-7.500433087759526
20
5.4999999999999991
10
-7.500433087759526
20
5.2829999999999995
10
-8.5004330877595251
20
5.2830000000000004
10
-8.5004330877595269
20
5.5
10
-9.2834330875595228
20
5.5000000000000018
10
-9.4004331051123877
20
5.50000015797578
42
-0.41421351096194003
10
-9.5004330875595215
20
5.6000001579757779
10
-9.5004330875595198
20
6.5000001755286405
10
-9.3066830875595219
20
6.5000001755286396
10
-9.3066830875595219
20
6.3000002872287073
42
0.99999999999999989
10
-8.9941830875595201
20
6.3000002872287064
10
-8.9941830875595219
20
6.5000001755286405
10
-8.8004330875595205
20
6.5000001755286396
10
-8.8004330875595222
20
6.1329999999999982
42
0.41421356237309304
10
-8.7004330875595226
20
6.0329999999999995
0
LINE
5
154
100
AcDbEntity
8
0
100
AcDbLine
10
-9.2834330875595246
20
5.5000001579757782
30
6.9935308637805131e-16
11
-8.5004330877595269
21
5.5000000000000009
31
-2.1854783949314186e-17
0
LINE
5
155
100
AcDbEntity
8
0
100
AcDbLine
10
-2.4004330875595259
20
6.0329999999999995
30
2.1854783949314097e-17
11
-3.4624330875595275
21
6.0330000000000004
31
2.0762044751848398e-16
0
ENDSEC
0
SECTION
2
OBJECTS
0
DICTIONARY
5
C
100
AcDbDictionary
3
ACAD_GROUP
350
D
3
ACAD_MLINESTYLE
350
17
0
DICTIONARY
5
D
100
AcDbDictionary
0
DICTIONARY
5
1A
330
C
100
AcDbDictionary
0
DICTIONARY
5
17
100
AcDbDictionary
0
ENDSEC
0
EOF
