0
SECTION
2
HEADER
9
$INSUNITS
70
1
9
$ACADVER
1
AC1014
9
$HANDSEED
5
FFFF
0
ENDSEC
0
SECTION
2
TABLES
0
TABLE
2
VPORT
5
8
100
AcDbSymbolTable
0
ENDTAB
0
TABLE
2
LTYPE
5
5
100
AcDbSymbolTable
0
LTYPE
5
14
100
AcDbSymbolTableRecord
100
AcDbLinetypeTableRecord
2
BYBLOCK
70
0
0
LTYPE
5
15
100
AcDbSymbolTableRecord
100
AcDbLinetypeTableRecord
2
BYLAYER
70
0
0
ENDTAB
0
TABLE
2
LAYER
5
2
100
AcDbSymbolTable
70
2
0
LAYER
5
50
100
AcDbSymbolTableRecord
100
AcDbLayerTableRecord
2
0
70
0
6
CONTINUOUS
0
ENDTAB
0
TABLE
2
STYLE
5
3
100
AcDbSymbolTable
70
1
0
STYLE
5
11
100
AcDbSymbolTableRecord
100
AcDbTextStyleTableRecord
2
STANDARD
70
0
0
ENDTAB
0
TABLE
2
VIEW
5
6
100
AcDbSymbolTable
70
0
0
ENDTAB
0
TABLE
2
UCS
5
7
100
AcDbSymbolTable
70
0
0
ENDTAB
0
TABLE
2
APPID
5
9
100
AcDbSymbolTable
70
2
0
APPID
5
12
100
AcDbSymbolTableRecord
100
AcDbRegAppTableRecord
2
ACAD
70
0
0
ENDTAB
0
TABLE
2
DIMSTYLE
5
A
100
AcDbSymbolTable
70
1
0
ENDTAB
0
TABLE
2
BLOCK_RECORD
5
1
100
AcDbSymbolTable
70
1
0
BLOCK_RECORD
5
1F
100
AcDbSymbolTableRecord
100
AcDbBlockTableRecord
2
*MODEL_SPACE
0
BLOCK_RECORD
5
1B
100
AcDbSymbolTableRecord
100
AcDbBlockTableRecord
2
*PAPER_SPACE
0
ENDTAB
0
ENDSEC
0
SECTION
2
BLOCKS
0
BLOCK
5
20
100
AcDbEntity
100
AcDbBlockBegin
2
*MODEL_SPACE
0
ENDBLK
5
21
100
AcDbEntity
100
AcDbBlockEnd
0
BLOCK
5
1C
100
AcDbEntity
100
AcDbBlockBegin
2
*PAPER_SPACE
0
ENDBLK
5
1D
100
AcDbEntity
100
AcDbBlockEnd
0
ENDSEC
0
SECTION
2
ENTITIES
0
LWPOLYLINE
5
100
100
AcDbEntity
8
0
100
AcDbPolyline
90
55
70
1
43
0.0
10
7.604316912440475
20
-5.8329999999999993
10
7.604316912440475
20
-6.0329999999999995
10
7.1233169124404743
20
-6.0329999999999995
10
7.123316912440476
20
-5.8329999999999993
42
0.99999999999999989
10
6.8108169124404734
20
-5.8329999999999993
10
6.8108169124404752
20
-6.0329999999999995
10
6.3298169124404744
20
-6.0329999999999995
10
6.3298169124404744
20
-5.8329999999999993
42
0.99999999999999989
10
6.0173169124404735
20
-5.8329999999999993
10
6.0173169124404744
20
-6.0329999999999995
10
5.5363169124404736
20
-6.0329999999999995
10
5.5363169124404736
20
-5.8329999999999993
42
0.99999999999999989
10
5.2238169124404736
20
-5.8329999999999993
10
5.2238169124404745
20
-6.0329999999999995
10
4.7428169124404747
20
-6.0329999999999995
10
4.7428169124404747
20
-5.8329999999999993
42
0.99999999999999989
10
4.4303169124404738
20
-5.8329999999999993
10
4.4303169124404747
20
-6.0329999999999995
10
3.9493169124404752
20
-6.0329999999999995
10
3.9493169124404743
20
-5.8329999999999993
42
0.99999999999999989
10
3.6368169124404739
20
-5.8329999999999993
10
3.6368169124404748
20
-6.0329999999999995
10
3.1558169124404754
20
-6.0329999999999995
10
3.1558169124404745
20
-5.8329999999999993
42
0.99999999999999989
10
2.8433169124404745
20
-5.8329999999999993
10
2.8433169124404749
20
-6.0329999999999995
10
2.4004330875595268
20
-6.0329999999999995
42
-0.41421356237309503
10
2.3004330875595267
20
-5.9329999999999998
10
2.3004330875595262
20
-5.5999999999999996
42
-0.41421356237309503
10
2.4004330875595259
20
-5.5
10
2.5004330875595264
20
-5.5
10
2.5004330875595264
20
-5.2829999999999995
10
3.500433087559526
20
-5.2829999999999995
10
3.500433087559526
20
-5.5329999999999995
10
5.000433087659526
20
-5.5329999999999995
10
5.000433087659526
20
-5.2829999999999995
10
6.000433087659526
20
-5.2829999999999995
10
6.0004330876595251
20
-5.4999999999999991
10
7.500433087759526
20
-5.4999999999999991
10
7.5004330877595278
20
-5.2829999999999986
10
8.5004330877595269
20
-5.2829999999999995
10
8.5004330877595269
20
-5.4999999999999991
10
9.2834330875595263
20
-5.5000000000000009
10
9.4004331051123877
20
-5.5000001579757791
42
-0.41421351096194414
10
9.5004330875595233
20
-5.600000157975777
10
9.5004330875595233
20
-6.5000001755286396
10
9.3066830875595237
20
-6.5000001755286396
10
9.3066830875595237
20
-6.3000002872287064
42
0.99999999999999989
10
8.9941830875595219
20
-6.3000002872287064
10
8.9941830875595219
20
-6.5000001755286396
10
8.800433087559524
20
-6.5000001755286396
10
8.800433087559524
20
-6.1329999999999982
42
0.41421356237309914
10
8.7004330875595226
20
-6.0329999999999995
10
7.9168169124404759
20
-6.0329999999999995
10
7.9168169124404741
20
-5.8329999999999993
42
0.99999999999999989
0
ENDSEC
0
SECTION
2
OBJECTS
0
DICTIONARY
5
C
100
AcDbDictionary
3
ACAD_GROUP
350
D
3
ACAD_MLINESTYLE
350
17
0
DICTIONARY
5
D
100
AcDbDictionary
0
DICTIONARY
5
1A
330
C
100
AcDbDictionary
0
DICTIONARY
5
17
100
AcDbDictionary
0
ENDSEC
0
EOF
